# Blender v2.79 (sub 0) OBJ File: ''
# www.blender.org
mtllib Tree.mtl
o Tree
v -176.805099 0.000000 -0.475200
v -154.566895 0.000002 -10.806300
v -155.460297 45.337002 -11.132893
v -176.478394 45.337002 -1.368693
v -164.897903 0.000005 -33.044498
v -165.224594 45.337006 -32.150993
v -187.136093 0.000004 -22.713400
v -186.242706 45.337006 -22.386793
v -190.705902 45.221291 37.547207
v -116.544502 45.221298 3.094607
v -170.851501 258.478485 -16.759857
v -150.997101 45.221310 -71.066895
v -225.158493 45.221306 -36.614292
vt 0.859400 0.981400
vt 0.740700 0.984900
vt 0.739500 0.832900
vt 0.851600 0.829600
vt 0.622000 0.983300
vt 0.627300 0.831400
vt 0.503500 0.976600
vt 0.515300 0.825100
vt 0.977700 0.972800
vt 0.963500 0.821500
vt 0.372600 0.886600
vt 0.038200 0.949900
vt 0.037100 0.030100
vt 0.953900 0.104300
vt 0.864100 0.432700
vt 0.661100 0.705900
vn 0.4213 0.0148 0.9068
vn 0.9068 0.0148 -0.4213
vn -0.4213 0.0148 -0.9068
vn -0.9068 0.0148 0.4213
vn 0.4138 0.1883 0.8907
vn 0.8907 0.1883 -0.4138
vn -0.4138 0.1883 -0.8907
vn -0.8907 0.1883 0.4138
usemtl None
s 1
f 1/1/1 2/2/1 3/3/1 4/4/1
f 2/2/2 5/5/2 6/6/2 3/3/2
f 5/5/3 7/7/3 8/8/3 6/6/3
f 7/9/4 1/1/4 4/4/4 8/10/4
f 9/11/5 10/12/5 11/13/5
f 10/14/6 12/15/6 11/13/6
f 12/15/7 13/16/7 11/13/7
f 13/16/8 9/11/8 11/13/8
