# Exported from Wings 3D 2.1.5
mtllib heli.mtl
o Cube1
#29 vertices, 42 faces
v -0.55555556 0.33333333 -0.41666667
v -0.55555556 0.33333333 0.41666667
v -0.55555556 1.16666667 -0.41666667
v -0.55555556 1.16666667 0.41666667
v 0.55555556 0.33333333 -0.41666667
v 0.55555556 0.33333333 0.41666667
v 0.55555556 1.16666667 -0.41666667
v 0.55555556 1.16666667 0.41666667
v -0.75000000 0.18750000 0.0000000e+0
v -0.75000000 0.75000000 -0.56250000
v 0.0000000e+0 0.18750000 -0.56250000
v -0.75000000 0.75000000 0.56250000
v 0.0000000e+0 0.18750000 0.56250000
v -0.75000000 1.31250000 0.0000000e+0
v 0.0000000e+0 1.31250000 -0.56250000
v 0.0000000e+0 1.31250000 0.56250000
v 0.75000000 0.18750000 0.0000000e+0
v 0.75000000 0.75000000 -0.56250000
v 0.75000000 0.75000000 0.56250000
v 0.75000000 1.31250000 0.0000000e+0
v 0.0000000e+0 1.50000000 0.0000000e+0
v 0.0000000e+0 0.75000000 0.75000000
v 0.0000000e+0 0.75000000 -0.75000000
v 1.00000000 0.75000000 0.0000000e+0
v -1.00000000 0.75000000 0.0000000e+0
v -1.00000000 1.75000000 -1.00000000
v -1.00000000 1.75000000 1.00000000
v 1.00000000 1.75000000 -1.00000000
v 1.00000000 1.75000000 1.00000000
vt 0.0000000e+0 0.17111994
vt 0.0000000e+0 0.45575048
vt 8.1270388e-3 0.61031459
vt 1.6141420e-2 1.7186294e-2
vt 6.9490321e-2 0.31381285
vt 9.9074821e-2 0.74038638
vt 0.12106816 0.46305252
vt 0.12852028 0.14718908
vt 0.13132446 0.56658197
vt 0.13457857 4.3329394e-2
vt 0.15319313 0.23965006
vt 0.17015152 0.65404762
vt 0.25709329 0.39622518
vt 0.26608691 0.39622518
vt 0.26790008 0.25885059
vt 0.27711329 0.14173338
vt 0.27723659 0.53795856
vt 0.28644979 0.65507577
vt 0.28826297 0.0000000e+0
vt 0.29725658 0.79245036
vt 0.38419835 0.25782245
vt 0.40115674 0.63587524
vt 0.41977131 0.43955457
vt 0.42302541 0.17035679
vt 0.42582960 0.54341426
vt 0.43328171 6.6827344e-2
vt 0.45527505 0.34416121
vt 0.48485955 0.71003802
vt 0.53820846 0.41341147
vt 0.54622284 0.21408942
vt 0.55434987 0.56734512
vt 0.55434987 5.9525303e-2
vt 0.55434987 0.44565013
vt 0.55434987 0.0000000e+0
vt 1.00000000 8.3266727e-17
vt 1.00000000 0.44565013
vn -0.57048147 -0.41880459 -0.70650804
vn -0.57048147 -0.41880459 0.70650804
vn -0.49036490 0.61625574 -0.61625574
vn -0.49036490 0.61625574 0.61625574
vn 0.57048147 -0.41880459 -0.70650804
vn 0.57048147 -0.41880459 0.70650804
vn 0.49036490 0.61625574 -0.61625574
vn 0.49036490 0.61625574 0.61625574
vn -0.91381155 -0.40613847 0.0000000e+0
vn -0.63449537 -1.7344960e-17 -0.77292667
vn 0.0000000e+0 -0.31622777 -0.94868330
vn -0.63449537 -1.7344960e-17 0.77292667
vn 0.0000000e+0 -0.31622777 0.94868330
vn -0.63449537 0.77292667 0.0000000e+0
vn 0.0000000e+0 0.70710678 -0.70710678
vn 0.0000000e+0 0.70710678 0.70710678
vn 0.91381155 -0.40613847 0.0000000e+0
vn 0.63449537 -1.7344960e-17 -0.77292667
vn 0.63449537 0.0000000e+0 0.77292667
vn 0.63449537 0.77292667 0.0000000e+0
vn 0.0000000e+0 1.00000000 7.7784337e-18
vn 0.0000000e+0 -6.2227470e-17 1.00000000
vn 7.7784337e-18 -5.4449036e-17 -1.00000000
vn 1.00000000 4.3674968e-17 8.7349936e-18
vn -1.00000000 4.3674968e-17 0.0000000e+0
vn 0.0000000e+0 1.00000000 0.0000000e+0
vn 0.0000000e+0 1.00000000 0.0000000e+0
vn 0.0000000e+0 1.00000000 0.0000000e+0
vn 0.0000000e+0 1.00000000 0.0000000e+0
g Cube1_Cube1_auv
usemtl Cube1_auv
s 1
f 1/23/1 23/17/23 11/14/11
f 1/23/1 25/31/25 10/25/10
f 2/10/2 22/16/22 12/8/12
f 2/10/2 25/1/25 9/4/9
f 3/22/3 21/20/21 15/18/15
f 3/22/3 23/17/23 10/25/10
f 3/22/3 25/31/25 14/28/14
f 4/11/4 21/13/21 14/5/14
f 4/11/4 22/16/22 16/15/16
f 4/11/4 25/1/25 12/8/12
f 5/7/5 23/17/23 18/9/18
f 5/7/5 24/3/24 17/2/17
f 6/26/6 22/16/22 13/19/13
f 6/26/6 24/30/24 19/24/19
f 7/12/7 21/20/21 20/6/20
f 7/12/7 23/17/23 15/18/15
f 7/12/7 24/3/24 18/9/18
f 8/21/8 21/13/21 16/15/16
f 8/21/8 22/16/22 19/24/19
f 8/21/8 24/30/24 20/27/20
f 9/29/9 25/31/25 1/23/1
f 10/25/10 23/17/23 1/23/1
f 10/25/10 25/31/25 3/22/3
f 11/14/11 23/17/23 5/7/5
f 12/8/12 22/16/22 4/11/4
f 12/8/12 25/1/25 2/10/2
f 13/19/13 22/16/22 2/10/2
f 14/28/14 21/20/21 3/22/3
f 14/5/14 25/1/25 4/11/4
f 15/18/15 21/20/21 7/12/7
f 15/18/15 23/17/23 3/22/3
f 16/15/16 21/13/21 4/11/4
f 16/15/16 22/16/22 8/21/8
f 17/32/17 24/30/24 6/26/6
f 18/9/18 23/17/23 7/12/7
f 18/9/18 24/3/24 5/7/5
f 19/24/19 22/16/22 6/26/6
f 19/24/19 24/30/24 8/21/8
f 20/27/20 21/13/21 8/21/8
f 20/6/20 24/3/24 7/12/7
f 26/33/26 29/35/29 28/36/28
f 27/34/27 29/35/29 26/33/26
