# 3ds Max Wavefront OBJ Exporter v0.97b - (c)2007 guruware
# File Created: 26.09.2017 18:06:03

#
# object Factory
#

v  -250.2143 121.4195 109.2584
v  -65.9189 120.8100 159.9429
v  -65.9189 120.8100 -159.3988
v  -250.2143 121.4195 -108.7144
v  -250.2143 -0.0006 109.2584
v  -250.2143 8.4017 109.2584
v  -250.2143 8.4017 -108.7144
v  -250.2143 -0.0006 -108.7144
v  -74.4713 174.3610 210.2039
v  -74.4713 174.3610 -209.6599
v  -47.9635 8.4028 168.8131
v  -47.9634 8.4028 246.1494
v  104.8004 174.3610 210.2039
v  104.8004 174.3610 -209.6599
v  140.4375 8.4029 246.1494
v  170.4237 174.3610 122.6673
v  170.4237 174.3610 -122.1233
v  231.2257 8.4029 143.6244
v  -47.9635 8.4028 -168.2690
v  -47.9634 8.4028 -245.6053
v  140.4375 8.4028 -245.6053
v  231.2257 8.4028 -143.0803
v  -55.5518 8.4000 -174.4191
v  -250.2142 8.4017 -118.1561
v  -55.6991 8.4018 -251.6904
v  144.0660 8.4054 -254.3550
v  239.7986 8.4066 -146.3582
v  239.7986 8.4066 146.9023
v  144.0660 8.4054 254.8991
v  -55.6991 8.4018 252.2345
v  -55.5518 8.4000 174.9632
v  -250.2142 8.4017 118.7001
v  -55.5518 -0.0029 -174.4191
v  -250.2142 -0.0013 -118.1561
v  -55.6991 -0.0012 -251.6904
v  144.0660 0.0024 -254.3550
v  239.7986 0.0036 -146.3582
v  239.7986 0.0036 146.9023
v  144.0660 0.0024 254.8991
v  -55.6991 -0.0012 252.2345
v  -55.5518 -0.0029 174.9632
v  -250.2142 -0.0013 118.7001
# 42 vertices

vn 0.0033 1.0000 -0.0000
vn -1.0000 0.0000 -0.0000
vn -0.9875 -0.1577 -0.0000
vn -0.9875 -0.1577 0.0000
vn 0.0000 1.0000 -0.0000
vn 0.0000 0.2117 0.9773
vn 0.7325 0.3162 0.6028
vn -0.2742 0.0160 0.9615
vn -0.2742 0.0160 -0.9615
vn 0.0000 0.2117 -0.9773
vn 0.9390 0.3440 -0.0000
vn 0.7325 0.3162 -0.6028
vn -0.0000 1.0000 -0.0002
vn -0.0003 1.0000 0.0000
vn -0.0000 1.0000 0.0001
vn -0.0003 1.0000 0.0002
vn -0.0004 1.0000 -0.0000
vn -0.0003 1.0000 -0.0002
vn -0.0000 1.0000 -0.0001
vn -0.0003 1.0000 -0.0000
vn -0.0000 1.0000 0.0002
vn -0.2777 0.0000 -0.9607
vn -1.0000 0.0000 0.0019
vn -0.0133 0.0000 -0.9999
vn 0.7483 0.0000 -0.6633
vn 1.0000 0.0000 -0.0000
vn 0.7483 0.0000 0.6633
vn -0.0133 0.0000 0.9999
vn -1.0000 0.0000 -0.0019
vn -0.2777 0.0000 0.9607
vn -1.0000 0.0000 0.0000
# 31 vertex normals

vt 0.6076 0.6633 0.0000
vt 0.6687 0.8524 0.0000
vt 0.3228 0.8524 0.0000
vt 0.3839 0.6633 0.0000
vt 0.6076 0.5387 0.0000
vt 0.6076 0.5473 0.0000
vt 0.3839 0.5473 0.0000
vt 0.3839 0.5387 0.0000
vt 0.1741 0.8750 0.0000
vt 0.8201 0.8750 0.0000
vt 0.8994 0.9790 0.0000
vt 0.0948 0.9790 0.0000
vt 0.8200 0.6569 0.0000
vt 0.9684 0.6569 0.0000
vt 0.2602 0.0226 0.0000
vt 0.7427 0.0226 0.0000
vt 0.7427 0.2286 0.0000
vt 0.2602 0.2286 0.0000
vt 0.9379 0.0529 0.0000
vt 0.9379 0.2697 0.0000
vt 0.6421 0.3040 0.0000
vt 0.3607 0.3040 0.0000
vt 0.8693 0.3826 0.0000
vt 0.7455 0.4805 0.0000
vt 0.7181 0.6280 0.0000
vt 0.7840 0.8339 0.0000
vt 0.2735 0.6278 0.0000
vt 0.2074 0.8341 0.0000
vt 0.0261 0.6569 0.0000
vt 0.1739 0.6569 0.0000
vt 0.0650 0.0526 0.0000
vt 0.0650 0.2700 0.0000
vt 0.6663 0.5071 0.0000
vt 0.3365 0.5071 0.0000
vt 0.1335 0.3826 0.0000
vt 0.2574 0.4805 0.0000
vt 0.2012 0.8263 0.0000
vt 0.2639 0.6274 0.0000
vt 0.0148 0.6422 0.0000
vt 0.1620 0.6424 0.0000
vt 0.0549 0.2746 0.0000
vt 0.0580 0.0432 0.0000
vt 0.2544 0.4908 0.0000
vt 0.1234 0.3871 0.0000
vt 0.6702 0.5170 0.0000
vt 0.3326 0.5170 0.0000
vt 0.8794 0.3871 0.0000
vt 0.7485 0.4908 0.0000
vt 0.9449 0.0438 0.0000
vt 0.9479 0.2741 0.0000
vt 0.8317 0.6423 0.0000
vt 0.9802 0.6420 0.0000
vt 0.7276 0.6278 0.0000
vt 0.7901 0.8260 0.0000
vt 0.1930 0.8237 0.0000
vt 0.2556 0.6248 0.0000
vt 0.0148 0.6261 0.0000
vt 0.1620 0.6264 0.0000
vt 0.0451 0.2745 0.0000
vt 0.0482 0.0431 0.0000
vt 0.2484 0.4984 0.0000
vt 0.1174 0.3948 0.0000
vt 0.6702 0.5267 0.0000
vt 0.3326 0.5267 0.0000
vt 0.8855 0.3948 0.0000
vt 0.7545 0.4984 0.0000
vt 0.9546 0.0437 0.0000
vt 0.9576 0.2739 0.0000
vt 0.8317 0.6262 0.0000
vt 0.9802 0.6259 0.0000
vt 0.7359 0.6252 0.0000
vt 0.7983 0.8234 0.0000
vt 0.2643 0.6189 0.0000
vt 0.2738 0.6193 0.0000
vt 0.7181 0.6198 0.0000
vt 0.7273 0.6196 0.0000
# 76 texture coords

g Factory
s off
f 1/1/1 2/2/1 3/3/1 4/4/1 
f 5/5/2 6/6/2 7/7/2 8/8/2 
f 3/9/3 2/10/3 9/11/3 10/12/3 
f 2/10/4 11/13/4 12/14/4 9/11/4 
f 10/15/5 9/16/5 13/17/5 14/18/5 
f 12/19/6 15/20/6 13/17/6 9/16/6 
f 14/18/5 13/17/5 16/21/5 17/22/5 
f 15/23/7 18/24/7 16/21/7 13/17/7 
f 2/2/8 1/1/8 6/25/8 11/26/8 
f 7/27/9 4/4/9 3/3/9 19/28/9 
f 1/1/2 4/4/2 7/7/2 6/6/2 
f 3/9/3 10/12/3 20/29/3 19/30/3 
f 20/31/10 10/15/10 14/18/10 21/32/10 
f 17/22/11 16/21/11 18/33/11 22/34/11 
f 21/35/12 14/18/12 17/22/12 22/36/12 
f 7/27/13 19/28/13 23/37/13 24/38/13 
f 19/30/14 20/29/14 25/39/14 23/40/14 
f 20/31/15 21/32/15 26/41/15 25/42/15 
f 21/35/16 22/36/16 27/43/16 26/44/16 
f 22/34/17 18/33/17 28/45/17 27/46/17 
f 18/24/18 15/23/18 29/47/18 28/48/18 
f 15/20/19 12/19/19 30/49/19 29/50/19 
f 12/14/20 11/13/20 31/51/20 30/52/20 
f 11/26/21 6/25/21 32/53/21 31/54/21 
f 24/38/22 23/37/22 33/55/22 34/56/22 
f 23/40/23 25/39/23 35/57/23 33/58/23 
f 25/42/24 26/41/24 36/59/24 35/60/24 
f 26/44/25 27/43/25 37/61/25 36/62/25 
f 27/46/26 28/45/26 38/63/26 37/64/26 
f 28/48/27 29/47/27 39/65/27 38/66/27 
f 29/50/28 30/49/28 40/67/28 39/68/28 
f 30/52/29 31/51/29 41/69/29 40/70/29 
f 31/54/30 32/53/30 42/71/30 41/72/30 
f 7/27/2 24/38/2 34/73/2 8/74/2 
f 32/53/31 6/25/31 5/75/31 42/76/31 
# 35 polygons

