# Blender v2.79 (sub 0) OBJ File: ''
# www.blender.org
mtllib BTR.mtl
o BTR_Untitled
v -1.586577 0.173903 0.901006
v 1.045203 0.173903 0.901006
v -1.673943 0.595004 0.901006
v -1.586577 0.173903 -0.901006
v 1.045203 0.173903 -0.901006
v -0.948793 1.070243 0.901006
v 1.254214 1.070243 0.901006
v 1.335335 0.876662 0.901006
v -0.948793 1.070243 -0.901006
v 1.254214 1.070243 -0.901006
v 1.335335 0.876662 -0.901006
v -1.673943 0.595004 -0.901006
v -1.341914 0.461370 0.991662
v -0.457502 0.461370 0.991662
v -0.305485 0.392317 0.562653
v -0.460695 0.000038 0.991662
v -0.460695 0.000038 0.562653
v -0.247504 0.230704 0.991662
v -0.247504 0.230704 0.562653
v -0.305485 0.392317 0.991662
v -0.457502 0.461370 0.562653
v -0.306417 0.069090 0.991662
v -0.306417 0.069090 0.562653
v -1.338721 0.000038 0.562653
v -1.492646 0.392317 0.562653
v -1.338721 0.000038 0.991662
v -1.545159 0.230704 0.991662
v -1.545159 0.230704 0.562653
v -1.492646 0.392317 0.991662
v -1.341914 0.461370 0.562653
v -1.491715 0.069090 0.991662
v -1.491715 0.069090 0.562653
v 1.171309 0.461370 0.991662
v 1.171309 0.461370 0.562653
v 0.286896 0.461370 0.562653
v 0.286896 0.461370 0.991662
v 0.290089 0.000038 0.562653
v 1.168115 0.000038 0.562653
v 1.168115 0.000038 0.991662
v 0.290089 0.000038 0.991662
v 1.323326 0.392317 0.562653
v 1.323326 0.392317 0.991662
v 1.381306 0.230704 0.991662
v 1.381306 0.230704 0.562653
v 1.322394 0.069090 0.991662
v 1.322394 0.069090 0.562653
v 0.136164 0.392317 0.562653
v 0.083652 0.230704 0.562653
v 0.083652 0.230704 0.991662
v 0.136164 0.392317 0.991662
v 0.137096 0.069090 0.562653
v 0.137096 0.069090 0.991662
v -1.341914 0.461370 -0.991662
v -0.457502 0.461370 -0.991662
v -0.305485 0.392317 -0.562653
v -0.460695 0.000038 -0.991662
v -0.460695 0.000038 -0.562653
v -0.247504 0.230704 -0.991662
v -0.247504 0.230704 -0.562653
v -0.305485 0.392317 -0.991662
v -0.457502 0.461370 -0.562653
v -0.306417 0.069090 -0.991662
v -0.306417 0.069090 -0.562653
v -1.338721 0.000038 -0.562653
v -1.492646 0.392317 -0.562653
v -1.338721 0.000038 -0.991662
v -1.545159 0.230704 -0.991662
v -1.545159 0.230704 -0.562653
v -1.492646 0.392317 -0.991662
v -1.341914 0.461370 -0.562653
v -1.491715 0.069090 -0.991662
v -1.491715 0.069090 -0.562653
v 1.171309 0.461370 -0.991662
v 1.171309 0.461370 -0.562653
v 0.286896 0.461370 -0.562653
v 0.286896 0.461370 -0.991662
v 0.290089 0.000038 -0.562653
v 1.168115 0.000038 -0.562653
v 1.168115 0.000038 -0.991662
v 0.290089 0.000038 -0.991662
v 1.323326 0.392317 -0.562653
v 1.323326 0.392317 -0.991662
v 1.381306 0.230704 -0.991662
v 1.381306 0.230704 -0.562653
v 1.322394 0.069090 -0.991662
v 1.322394 0.069090 -0.562653
v 0.136164 0.392317 -0.562653
v 0.083652 0.230704 -0.562653
v 0.083652 0.230704 -0.991662
v 0.136164 0.392317 -0.991662
v 0.137096 0.069090 -0.562653
v 0.137096 0.069090 -0.991662
v 0.111733 1.214515 0.710993
v 0.111733 1.214515 0.241201
v -0.667625 1.214515 0.241201
v -0.667625 1.214515 0.710993
v 0.138097 1.067635 0.710993
v 0.138097 1.067635 0.241201
v -0.641261 1.067635 0.241201
v -0.641261 1.067635 0.710993
v -0.640765 1.188945 0.590203
v -0.640765 1.104101 0.541219
v -0.640765 1.104101 0.639188
v -0.832975 1.188945 0.590203
v -0.832975 1.104101 0.541219
v -0.832975 1.104101 0.639188
v -0.640765 1.188945 0.364197
v -0.640765 1.104101 0.315213
v -0.832975 1.104101 0.315213
v -0.832975 1.188945 0.364197
v -0.640765 1.104101 0.413181
v -0.832975 1.104101 0.413181
v 0.111733 1.214515 -0.710993
v 0.111733 1.214515 -0.241201
v -0.667625 1.214515 -0.241201
v -0.667625 1.214515 -0.710993
v 0.138097 1.067635 -0.710993
v 0.138097 1.067635 -0.241201
v -0.641261 1.067635 -0.241201
v -0.641261 1.067635 -0.710993
v -0.640765 1.188945 -0.590203
v -0.640765 1.104101 -0.541219
v -0.640765 1.104101 -0.639188
v -0.832975 1.188945 -0.590203
v -0.832975 1.104101 -0.541219
v -0.832975 1.104101 -0.639188
v -0.640765 1.188945 -0.364197
v -0.640765 1.104101 -0.315213
v -0.832975 1.104101 -0.315213
v -0.832975 1.188945 -0.364197
v -0.640765 1.104101 -0.413181
v -0.832975 1.104101 -0.413181
vt 0.152540 0.360187
vt 0.604273 0.360188
vt 0.654071 0.480813
vt 0.137543 0.432467
vt 0.152540 0.977204
vt 0.137543 0.904923
vt 0.654072 0.856577
vt 0.604273 0.977202
vt 0.676174 0.823346
vt 0.676174 0.514040
vt 0.806675 0.514040
vt 0.806675 0.823346
vt 0.039371 0.823346
vt 0.039371 0.514040
vt 0.113191 0.514040
vt 0.113191 0.823347
vt 0.484176 0.337737
vt 0.028178 0.337737
vt 0.028178 0.025510
vt 0.484176 0.025510
vt 0.262010 0.514040
vt 0.640147 0.514040
vt 0.262010 0.823348
vt 0.640147 0.823348
vt 0.705160 0.354190
vt 0.705158 0.248466
vt 0.923111 0.248465
vt 0.923113 0.354189
vt 0.922324 0.134776
vt 0.705943 0.134776
vt 0.705943 0.029052
vt 0.922323 0.029052
vt 0.513780 0.160187
vt 0.513780 0.114867
vt 0.627020 0.114867
vt 0.627020 0.160187
vt 0.960574 0.231449
vt 0.974863 0.191621
vt 0.513780 0.069464
vt 0.627020 0.069463
vt 0.513780 0.204258
vt 0.627020 0.204258
vt 0.627020 0.024848
vt 0.513780 0.024848
vt 0.922328 0.467879
vt 0.705948 0.467880
vt 0.974866 0.411033
vt 0.960348 0.450861
vt 0.960344 0.151793
vt 0.960576 0.371205
vt 0.958743 0.647301
vt 0.844918 0.647301
vt 0.844918 0.602217
vt 0.958743 0.602217
vt 0.668011 0.231450
vt 0.655069 0.191623
vt 0.958743 0.557055
vt 0.844918 0.557055
vt 0.958743 0.691290
vt 0.844918 0.691290
vt 0.844918 0.512520
vt 0.958743 0.512520
vt 0.655073 0.411035
vt 0.668244 0.450863
vt 0.668239 0.151794
vt 0.668014 0.371207
vt 0.705160 0.354190
vt 0.705158 0.248466
vt 0.923111 0.248465
vt 0.923113 0.354189
vt 0.922324 0.134776
vt 0.705943 0.134776
vt 0.705943 0.029052
vt 0.922323 0.029052
vt 0.513780 0.160187
vt 0.513780 0.114867
vt 0.627020 0.114867
vt 0.627020 0.160187
vt 0.960574 0.231449
vt 0.974863 0.191621
vt 0.513780 0.069464
vt 0.627020 0.069463
vt 0.513780 0.204258
vt 0.627020 0.204258
vt 0.627020 0.024848
vt 0.513780 0.024848
vt 0.922328 0.467879
vt 0.705948 0.467880
vt 0.974866 0.411033
vt 0.960348 0.450861
vt 0.960344 0.151793
vt 0.960576 0.371205
vt 0.958743 0.647301
vt 0.844918 0.647301
vt 0.844918 0.602217
vt 0.958743 0.602217
vt 0.668011 0.231450
vt 0.655069 0.191623
vt 0.958743 0.557055
vt 0.844918 0.557055
vt 0.958743 0.691290
vt 0.844918 0.691290
vt 0.844918 0.512520
vt 0.958743 0.512520
vt 0.655073 0.411035
vt 0.668244 0.450863
vt 0.668239 0.151794
vt 0.668014 0.371207
vt 0.705160 0.354190
vt 0.923113 0.354189
vt 0.923111 0.248465
vt 0.705158 0.248466
vt 0.922324 0.134776
vt 0.922323 0.029052
vt 0.705943 0.029052
vt 0.705943 0.134776
vt 0.513780 0.160187
vt 0.627020 0.160187
vt 0.627020 0.114867
vt 0.513780 0.114867
vt 0.960574 0.231449
vt 0.974863 0.191621
vt 0.513780 0.069464
vt 0.627020 0.069463
vt 0.513780 0.204258
vt 0.627020 0.204258
vt 0.627020 0.024848
vt 0.513780 0.024848
vt 0.705948 0.467880
vt 0.922328 0.467879
vt 0.974866 0.411033
vt 0.960348 0.450861
vt 0.960344 0.151793
vt 0.960576 0.371205
vt 0.958743 0.647301
vt 0.958743 0.602217
vt 0.844918 0.602217
vt 0.844918 0.647301
vt 0.668011 0.231450
vt 0.655069 0.191623
vt 0.958743 0.557055
vt 0.844918 0.557055
vt 0.958743 0.691290
vt 0.844918 0.691290
vt 0.844918 0.512520
vt 0.958743 0.512520
vt 0.655073 0.411035
vt 0.668244 0.450863
vt 0.668239 0.151794
vt 0.668014 0.371207
vt 0.705160 0.354190
vt 0.923113 0.354189
vt 0.923111 0.248465
vt 0.705158 0.248466
vt 0.922324 0.134776
vt 0.922323 0.029052
vt 0.705943 0.029052
vt 0.705943 0.134776
vt 0.513780 0.160187
vt 0.627020 0.160187
vt 0.627020 0.114867
vt 0.513780 0.114867
vt 0.960574 0.231449
vt 0.974863 0.191621
vt 0.513780 0.069464
vt 0.627020 0.069463
vt 0.513780 0.204258
vt 0.627020 0.204258
vt 0.627020 0.024848
vt 0.513780 0.024848
vt 0.705948 0.467880
vt 0.922328 0.467879
vt 0.974866 0.411033
vt 0.960348 0.450861
vt 0.960344 0.151793
vt 0.960576 0.371205
vt 0.958743 0.647301
vt 0.958743 0.602217
vt 0.844918 0.602217
vt 0.844918 0.647301
vt 0.668011 0.231450
vt 0.655069 0.191623
vt 0.958743 0.557055
vt 0.844918 0.557055
vt 0.958743 0.691290
vt 0.844918 0.691290
vt 0.844918 0.512520
vt 0.958743 0.512520
vt 0.655073 0.411035
vt 0.668244 0.450863
vt 0.668239 0.151794
vt 0.668014 0.371207
vt 0.708798 0.952666
vt 0.708798 0.867797
vt 0.849591 0.867797
vt 0.849591 0.952666
vt 0.876549 0.867796
vt 0.876549 0.952666
vt 0.854354 0.979200
vt 0.713561 0.979200
vt 0.681840 0.952666
vt 0.681840 0.867796
vt 0.713561 0.841263
vt 0.854354 0.841263
vt 0.552974 0.231884
vt 0.583340 0.231884
vt 0.583340 0.291460
vt 0.552974 0.291460
vt 0.613706 0.231884
vt 0.613706 0.291460
vt 0.522608 0.231884
vt 0.522608 0.291461
vt 0.568157 0.317758
vt 0.552974 0.231884
vt 0.583340 0.231884
vt 0.583340 0.291460
vt 0.552974 0.291460
vt 0.613706 0.231884
vt 0.613706 0.291460
vt 0.522608 0.231884
vt 0.522608 0.291461
vt 0.568157 0.317758
vt 0.708798 0.952666
vt 0.849591 0.952666
vt 0.849591 0.867797
vt 0.708798 0.867797
vt 0.876549 0.867796
vt 0.876549 0.952666
vt 0.854354 0.979200
vt 0.713561 0.979200
vt 0.681840 0.952666
vt 0.681840 0.867796
vt 0.713561 0.841263
vt 0.854354 0.841263
vt 0.552974 0.231884
vt 0.552974 0.291460
vt 0.583340 0.291460
vt 0.583340 0.231884
vt 0.613706 0.291460
vt 0.613706 0.231884
vt 0.522608 0.231884
vt 0.522608 0.291461
vt 0.568157 0.317758
vt 0.552974 0.231884
vt 0.552974 0.291460
vt 0.583340 0.291460
vt 0.583340 0.231884
vt 0.613706 0.291460
vt 0.613706 0.231884
vt 0.522608 0.231884
vt 0.522608 0.291461
vt 0.568157 0.317758
vn 0.0000 0.0000 1.0000
vn 0.0000 -0.0000 -1.0000
vn 0.9243 -0.3816 0.0000
vn -0.9791 -0.2031 0.0000
vn 0.0000 -1.0000 0.0000
vn 0.9223 0.3865 -0.0000
vn -0.5481 0.8364 0.0000
vn 0.0000 1.0000 0.0000
vn -0.2131 0.9770 0.0000
vn 0.2116 0.9774 0.0000
vn 0.2089 -0.9779 0.0000
vn -0.2104 -0.9776 0.0000
vn 0.7355 0.6776 0.0000
vn 1.0000 -0.0025 0.0000
vn 0.7319 -0.6815 0.0000
vn -0.7467 0.6651 0.0000
vn -1.0000 -0.0026 0.0000
vn -0.7431 -0.6692 0.0000
vn 0.9843 0.1767 0.0000
vn -0.9843 -0.1767 0.0000
vn 0.0000 0.5000 -0.8660
vn 0.0000 0.5000 0.8660
vn -1.0000 0.0000 0.0000
usemtl BTR
s 1
f 1/1/1 2/2/1 8/3/1
f 8/3/1 3/4/1 1/1/1
f 4/5/2 12/6/2 11/7/2
f 11/7/2 5/8/2 4/5/2
f 11/9/3 8/10/3 2/11/3
f 2/11/3 5/12/3 11/9/3
f 4/13/4 1/14/4 3/15/4
f 3/15/4 12/16/4 4/13/4
f 2/17/5 1/18/5 4/19/5
f 4/19/5 5/20/5 2/17/5
f 6/21/1 3/4/1 8/3/1
f 8/3/1 7/22/1 6/21/1
f 9/23/2 10/24/2 11/7/2
f 11/7/2 12/6/2 9/23/2
f 11/9/6 10/24/6 7/22/6
f 7/22/6 8/10/6 11/9/6
f 9/23/7 12/16/7 3/15/7
f 3/15/7 6/21/7 9/23/7
f 7/22/8 10/24/8 9/23/8
f 9/23/8 6/21/8 7/22/8
f 30/25/9 13/26/9 14/27/10
f 14/27/10 21/28/10 30/25/9
f 16/29/11 26/30/12 24/31/12
f 24/31/12 17/32/11 16/29/11
f 20/33/13 18/34/14 19/35/14
f 19/35/14 15/36/13 20/33/13
f 20/37/1 14/27/1 18/38/1
f 22/39/15 23/40/15 19/35/14
f 19/35/14 18/34/14 22/39/15
f 14/41/10 20/33/13 15/36/13
f 15/36/13 21/42/10 14/41/10
f 17/43/11 23/40/15 22/39/15
f 22/39/15 16/44/11 17/43/11
f 21/28/2 17/45/2 24/46/2
f 24/46/2 30/25/2 21/28/2
f 13/26/1 26/30/1 16/29/1
f 16/29/1 14/27/1 13/26/1
f 19/47/2 23/48/2 17/45/2
f 17/45/2 21/28/2 19/47/2
f 16/29/1 22/49/1 18/38/1
f 18/38/1 14/27/1 16/29/1
f 21/28/2 15/50/2 19/47/2
f 29/51/16 25/52/16 28/53/17
f 28/53/17 27/54/17 29/51/16
f 29/55/1 27/56/1 13/26/1
f 31/57/18 27/54/17 28/53/17
f 28/53/17 32/58/18 31/57/18
f 13/59/9 30/60/9 25/52/16
f 25/52/16 29/51/16 13/59/9
f 24/61/12 26/62/12 31/57/18
f 31/57/18 32/58/18 24/61/12
f 28/63/2 30/25/2 24/46/2
f 24/46/2 32/64/2 28/63/2
f 26/30/1 13/26/1 27/56/1
f 27/56/1 31/65/1 26/30/1
f 30/25/2 28/63/2 25/66/2
f 35/67/9 36/68/9 33/69/10
f 33/69/10 34/70/10 35/67/9
f 39/71/11 40/72/12 37/73/12
f 37/73/12 38/74/11 39/71/11
f 42/75/13 43/76/14 44/77/14
f 44/77/14 41/78/13 42/75/13
f 42/79/1 33/69/1 43/80/1
f 45/81/15 46/82/15 44/77/14
f 44/77/14 43/76/14 45/81/15
f 33/83/10 42/75/13 41/78/13
f 41/78/13 34/84/10 33/83/10
f 38/85/11 46/82/15 45/81/15
f 45/81/15 39/86/11 38/85/11
f 34/70/2 38/87/2 37/88/2
f 37/88/2 35/67/2 34/70/2
f 36/68/1 40/72/1 39/71/1
f 39/71/1 33/69/1 36/68/1
f 44/89/2 46/90/2 38/87/2
f 38/87/2 34/70/2 44/89/2
f 39/71/1 45/91/1 43/80/1
f 43/80/1 33/69/1 39/71/1
f 34/70/2 41/92/2 44/89/2
f 50/93/16 47/94/16 48/95/17
f 48/95/17 49/96/17 50/93/16
f 50/97/1 49/98/1 36/68/1
f 52/99/18 49/96/17 48/95/17
f 48/95/17 51/100/18 52/99/18
f 36/101/9 35/102/9 47/94/16
f 47/94/16 50/93/16 36/101/9
f 37/103/12 40/104/12 52/99/18
f 52/99/18 51/100/18 37/103/12
f 48/105/2 35/67/2 37/88/2
f 37/88/2 51/106/2 48/105/2
f 40/72/1 36/68/1 49/98/1
f 49/98/1 52/107/1 40/72/1
f 35/67/2 48/105/2 47/108/2
f 70/109/9 61/110/10 54/111/10
f 54/111/10 53/112/9 70/109/9
f 56/113/11 57/114/11 64/115/12
f 64/115/12 66/116/12 56/113/11
f 60/117/13 55/118/13 59/119/14
f 59/119/14 58/120/14 60/117/13
f 60/121/2 58/122/2 54/111/2
f 62/123/15 58/120/14 59/119/14
f 59/119/14 63/124/15 62/123/15
f 54/125/10 61/126/10 55/118/13
f 55/118/13 60/117/13 54/125/10
f 57/127/11 56/128/11 62/123/15
f 62/123/15 63/124/15 57/127/11
f 61/110/1 70/109/1 64/129/1
f 64/129/1 57/130/1 61/110/1
f 53/112/2 54/111/2 56/113/2
f 56/113/2 66/116/2 53/112/2
f 59/131/1 61/110/1 57/130/1
f 57/130/1 63/132/1 59/131/1
f 56/113/2 54/111/2 58/122/2
f 58/122/2 62/133/2 56/113/2
f 61/110/1 59/131/1 55/134/1
f 69/135/16 67/136/17 68/137/17
f 68/137/17 65/138/16 69/135/16
f 69/139/2 53/112/2 67/140/2
f 71/141/18 72/142/18 68/137/17
f 68/137/17 67/136/17 71/141/18
f 53/143/9 69/135/16 65/138/16
f 65/138/16 70/144/9 53/143/9
f 64/145/12 72/142/18 71/141/18
f 71/141/18 66/146/12 64/145/12
f 68/147/1 72/148/1 64/129/1
f 64/129/1 70/109/1 68/147/1
f 66/116/2 71/149/2 67/140/2
f 67/140/2 53/112/2 66/116/2
f 70/109/1 65/150/1 68/147/1
f 75/151/9 74/152/10 73/153/10
f 73/153/10 76/154/9 75/151/9
f 79/155/11 78/156/11 77/157/12
f 77/157/12 80/158/12 79/155/11
f 82/159/13 81/160/13 84/161/14
f 84/161/14 83/162/14 82/159/13
f 82/163/2 83/164/2 73/153/2
f 85/165/15 83/162/14 84/161/14
f 84/161/14 86/166/15 85/165/15
f 73/167/10 74/168/10 81/160/13
f 81/160/13 82/159/13 73/167/10
f 78/169/11 79/170/11 85/165/15
f 85/165/15 86/166/15 78/169/11
f 74/152/1 75/151/1 77/171/1
f 77/171/1 78/172/1 74/152/1
f 76/154/2 73/153/2 79/155/2
f 79/155/2 80/158/2 76/154/2
f 84/173/1 74/152/1 78/172/1
f 78/172/1 86/174/1 84/173/1
f 79/155/2 73/153/2 83/164/2
f 83/164/2 85/175/2 79/155/2
f 74/152/1 84/173/1 81/176/1
f 90/177/16 89/178/17 88/179/17
f 88/179/17 87/180/16 90/177/16
f 90/181/2 76/154/2 89/182/2
f 92/183/18 91/184/18 88/179/17
f 88/179/17 89/178/17 92/183/18
f 76/185/9 90/177/16 87/180/16
f 87/180/16 75/186/9 76/185/9
f 77/187/12 91/184/18 92/183/18
f 92/183/18 80/188/12 77/187/12
f 88/189/1 91/190/1 77/171/1
f 77/171/1 75/151/1 88/189/1
f 80/158/2 92/191/2 89/182/2
f 89/182/2 76/154/2 80/158/2
f 75/151/1 87/192/1 88/189/1
f 95/193/8 96/194/8 93/195/8
f 93/195/8 94/196/8 95/193/8
f 97/197/19 98/198/19 94/196/19
f 94/196/19 93/195/19 97/197/19
f 98/199/2 99/200/2 95/193/2
f 95/193/2 94/196/2 98/199/2
f 99/201/20 100/202/20 96/194/20
f 96/194/20 95/193/20 99/201/20
f 100/203/1 97/204/1 93/195/1
f 93/195/1 96/194/1 100/203/1
f 101/205/21 102/206/21 105/207/21
f 105/207/21 104/208/21 101/205/21
f 102/206/5 103/209/5 106/210/5
f 106/210/5 105/207/5 102/206/5
f 103/211/22 101/205/22 104/208/22
f 104/208/22 106/212/22 103/211/22
f 104/208/23 105/207/23 106/213/23
f 107/214/21 108/215/21 109/216/21
f 109/216/21 110/217/21 107/214/21
f 108/215/5 111/218/5 112/219/5
f 112/219/5 109/216/5 108/215/5
f 111/220/22 107/214/22 110/217/22
f 110/217/22 112/221/22 111/220/22
f 110/217/23 109/216/23 112/222/23
f 115/223/8 114/224/8 113/225/8
f 113/225/8 116/226/8 115/223/8
f 117/227/19 113/225/19 114/224/19
f 114/224/19 118/228/19 117/227/19
f 118/229/1 114/224/1 115/223/1
f 115/223/1 119/230/1 118/229/1
f 119/231/20 115/223/20 116/226/20
f 116/226/20 120/232/20 119/231/20
f 120/233/2 116/226/2 113/225/2
f 113/225/2 117/234/2 120/233/2
f 121/235/22 124/236/22 125/237/22
f 125/237/22 122/238/22 121/235/22
f 122/238/5 125/237/5 126/239/5
f 126/239/5 123/240/5 122/238/5
f 123/241/21 126/242/21 124/236/21
f 124/236/21 121/235/21 123/241/21
f 124/236/23 126/243/23 125/237/23
f 127/244/22 130/245/22 129/246/22
f 129/246/22 128/247/22 127/244/22
f 128/247/5 129/246/5 132/248/5
f 132/248/5 131/249/5 128/247/5
f 131/250/21 132/251/21 130/245/21
f 130/245/21 127/244/21 131/250/21
f 130/245/23 132/252/23 129/246/23
