# Blender v2.79 (sub 0) OBJ File: ''
# www.blender.org
mtllib Fighter.mtl
o FighterAircraft_Untitled.001
v -1.597461 0.048910 0.086131
v 1.594689 0.138183 0.054917
v -1.597461 0.048910 -0.086131
v 1.594689 0.138183 -0.054917
v -1.621740 0.112911 0.086131
v 1.667820 0.307729 0.054917
v -1.621740 0.112911 -0.086131
v 1.667820 0.307729 -0.054917
v -1.174984 0.074008 -0.115026
v -1.174984 0.074008 0.115026
v -1.331247 0.184368 0.115026
v -1.331247 0.184368 -0.115026
v -0.357238 0.041965 0.293323
v -0.501774 0.392918 -0.190378
v -0.357238 0.041965 -0.293323
v -0.501775 0.392918 0.190378
v 1.753126 0.808678 0.012195
v 1.876954 0.807025 0.012300
v 1.876954 0.807025 -0.012301
v 1.753126 0.808678 -0.012195
v 0.895823 0.321792 0.031508
v 1.647851 0.304206 0.031781
v 1.647851 0.304206 -0.031781
v 0.895823 0.321792 -0.031508
v 0.743591 0.202706 1.166848
v 1.179258 0.202706 1.166848
v 0.735957 0.228325 1.166848
v 1.187052 0.228325 1.166848
v -0.448047 0.168558 0.225240
v 1.522777 0.168558 0.050713
v -0.450616 0.262472 0.225240
v 1.552019 0.262472 0.050713
v 0.798280 0.026293 0.640560
v 0.798280 0.132226 0.579859
v 0.798280 0.026690 0.518469
v -0.138463 0.026293 0.640560
v -0.138463 0.132226 0.579859
v -0.138463 0.026690 0.518469
v -0.265888 0.061736 0.579629
v 1.167488 0.026293 0.958770
v 1.167488 0.132226 0.898069
v 0.230746 0.132226 0.898069
v 0.230746 0.026293 0.958770
v 1.167488 0.026690 0.836679
v 0.230746 0.026690 0.836679
v 0.103321 0.061736 0.897839
v 0.743591 0.202706 -1.166848
v 1.179258 0.202706 -1.166848
v 0.735957 0.228325 -1.166848
v 1.187052 0.228325 -1.166848
v -0.448047 0.168558 -0.225240
v 1.522777 0.168558 -0.050713
v -0.450616 0.262472 -0.225240
v 1.552019 0.262472 -0.050713
v 0.798280 0.026293 -0.640560
v 0.798280 0.132226 -0.579859
v 0.798280 0.026690 -0.518469
v -0.138463 0.026292 -0.640560
v -0.138463 0.132225 -0.579859
v -0.138463 0.026690 -0.518469
v -0.265888 0.061736 -0.579629
v 1.167488 0.026293 -0.958770
v 1.167488 0.132226 -0.898069
v 0.230746 0.132225 -0.898069
v 0.230746 0.026292 -0.958770
v 1.167488 0.026690 -0.836679
v 0.230746 0.026690 -0.836679
v 0.103321 0.061736 -0.897839
vt 0.126221 0.070146
vt 0.131735 0.182611
vt 0.070681 0.181440
vt 0.080504 0.069269
vt 0.396369 0.120338
vt 0.334472 0.120568
vt 0.342017 0.039983
vt 0.388365 0.039917
vt 0.559220 0.178116
vt 0.534749 0.132949
vt 0.562546 0.057171
vt 0.578913 0.065577
vt 0.384166 0.984484
vt 0.354615 0.984484
vt 0.354615 0.934838
vt 0.384165 0.934756
vt 0.200145 0.403634
vt 0.287555 0.350963
vt 0.306592 0.922496
vt 0.342016 0.021527
vt 0.388364 0.021527
vt 0.174892 0.400704
vt 0.019202 0.397723
vt 0.445407 0.350215
vt 0.533339 0.402013
vt 0.151053 0.067729
vt 0.167323 0.059137
vt 0.195994 0.134601
vt 0.172010 0.180028
vt 0.101694 0.918143
vt 0.072545 0.917585
vt 0.432067 0.921918
vt 0.978229 0.619829
vt 0.983654 0.624748
vt 0.958702 0.652312
vt 0.953227 0.647353
vt 0.851725 0.779255
vt 0.837575 0.766449
vt 0.626744 0.685438
vt 0.918386 0.634364
vt 0.623846 0.666741
vt 0.917264 0.627127
vt 0.953343 0.980965
vt 0.975099 0.685685
vt 0.695143 0.300262
vt 0.680163 0.182913
vt 0.686793 0.179933
vt 0.702309 0.301437
vt 0.695978 0.304980
vt 0.980419 0.591358
vt 0.955996 0.603373
vt 0.975012 0.043212
vt 0.682922 0.173778
vt 0.960749 0.020630
vt 0.594280 0.653413
vt 0.537128 0.556919
vt 0.579835 0.184149
vt 0.886670 0.583019
vt 0.847395 0.885402
vt 0.847262 0.928548
vt 0.516231 0.927516
vt 0.516365 0.884370
vt 0.847127 0.971694
vt 0.516096 0.970661
vt 0.847530 0.842257
vt 0.516499 0.841224
vt 0.884694 0.907091
vt 0.469443 0.948942
vt 0.469577 0.905798
vt 0.469711 0.862652
vt 0.847395 0.885402
vt 0.847262 0.928548
vt 0.516231 0.927516
vt 0.516365 0.884370
vt 0.847127 0.971694
vt 0.516096 0.970661
vt 0.847530 0.842257
vt 0.516499 0.841224
vt 0.884694 0.907091
vt 0.469443 0.948942
vt 0.469577 0.905798
vt 0.469711 0.862652
vt 0.695143 0.300262
vt 0.702309 0.301437
vt 0.686793 0.179933
vt 0.680163 0.182913
vt 0.695978 0.304980
vt 0.955996 0.603373
vt 0.980419 0.591358
vt 0.975012 0.043212
vt 0.960749 0.020630
vt 0.682922 0.173778
vt 0.594280 0.653413
vt 0.886670 0.583019
vt 0.579835 0.184149
vt 0.537128 0.556919
vt 0.847395 0.885402
vt 0.516365 0.884370
vt 0.516231 0.927516
vt 0.847262 0.928548
vt 0.516096 0.970661
vt 0.847127 0.971694
vt 0.847530 0.842257
vt 0.516499 0.841224
vt 0.884694 0.907091
vt 0.469443 0.948942
vt 0.469577 0.905798
vt 0.469711 0.862652
vt 0.847395 0.885402
vt 0.516365 0.884370
vt 0.516231 0.927516
vt 0.847262 0.928548
vt 0.516096 0.970661
vt 0.847127 0.971694
vt 0.847530 0.842257
vt 0.516499 0.841224
vt 0.884694 0.907091
vt 0.469443 0.948942
vt 0.469577 0.905798
vt 0.469711 0.862652
vn 0.0593 -0.9982 -0.0000
vn -0.2390 0.9710 0.0000
vn -0.2439 0.9698 -0.0000
vn -0.2389 0.9711 0.0000
vn -0.0732 -0.1036 0.9919
vn -0.0667 -0.0253 0.9975
vn 0.9182 -0.3961 0.0000
vn 0.0713 0.3077 -0.9488
vn 0.1237 -0.0533 -0.9909
vn -0.9350 -0.3547 0.0000
vn -0.0392 -0.9992 0.0000
vn -0.2438 0.9698 -0.0000
vn -0.1438 0.2236 0.9640
vn -0.2143 -0.3035 0.9284
vn -0.0906 -0.0344 -0.9953
vn -0.0659 -0.0933 -0.9935
vn -0.0635 -0.0899 -0.9939
vn -0.0627 -0.0888 -0.9941
vn -0.0665 -0.0942 -0.9933
vn -0.2014 0.1984 -0.9592
vn 0.0492 -0.9988 0.0000
vn 0.0392 0.9992 -0.0000
vn 0.0613 -0.0264 0.9978
vn 0.0995 0.3176 0.9430
vn 0.0133 0.9999 0.0000
vn 0.9100 -0.4146 0.0000
vn 0.0004 0.0387 -0.9993
vn 0.0005 0.0387 -0.9993
vn -0.0000 0.0388 -0.9992
vn -0.0003 0.0389 -0.9992
vn -0.4938 0.8696 -0.0000
vn 0.0004 0.0387 0.9993
vn 0.0005 0.0385 0.9993
vn 0.0002 0.0392 0.9992
vn -0.0003 0.0402 0.9992
vn 0.0000 0.0000 1.0000
vn -0.6143 -0.1831 0.7675
vn -0.6196 -0.0169 0.7847
vn 0.0003 0.9995 0.0308
vn 0.0000 0.9995 0.0306
vn 0.0005 0.9995 0.0309
vn 0.0028 0.9995 0.0327
vn 0.9142 -0.2829 0.2901
vn 0.9155 -0.2785 0.2903
vn 0.9150 -0.2803 0.2902
vn 0.9137 -0.2845 0.2901
vn 0.0005 -0.9994 0.0354
vn 0.0000 -0.9993 0.0362
vn 0.0006 -0.9994 0.0352
vn 0.0028 -0.9995 0.0314
vn -0.0000 0.4972 0.8676
vn -0.0000 0.5028 -0.8644
vn 0.0000 -1.0000 -0.0033
vn 1.0000 0.0000 0.0000
vn -0.2666 0.4846 -0.8331
vn -0.2666 0.4792 0.8363
vn -0.2666 -0.9638 -0.0031
vn -0.2666 0.4792 0.8362
vn 0.0000 0.0000 -1.0000
vn -0.6196 -0.0169 -0.7847
vn -0.6143 -0.1831 -0.7675
vn 0.0028 0.9995 -0.0327
vn 0.0000 0.9995 -0.0306
vn 0.9137 -0.2845 -0.2901
vn 0.9155 -0.2785 -0.2903
vn 0.0028 -0.9995 -0.0314
vn 0.0000 -0.9993 -0.0362
vn 0.0000 0.4972 -0.8676
vn -0.0000 0.5028 0.8644
vn 0.0000 -1.0000 0.0033
vn -0.2666 0.4846 0.8331
vn -0.2666 0.4792 -0.8363
vn -0.2666 -0.9638 0.0031
vn -0.2666 0.4792 -0.8362
usemtl FighterAircraft
s 1
f 3/1/1 9/2/1 10/3/1
f 10/3/1 1/4/1 3/1/1
f 11/5/2 12/6/3 7/7/4
f 7/7/4 5/8/4 11/5/2
f 10/9/5 11/10/5 5/11/5
f 5/11/6 1/12/6 10/9/6
f 2/13/7 4/14/7 8/15/7
f 8/15/7 6/16/7 2/13/7
f 15/17/8 14/18/8 8/15/8
f 8/15/9 4/19/9 15/17/9
f 3/20/10 1/21/10 5/8/10
f 5/8/10 7/7/10 3/20/10
f 15/22/11 13/23/11 10/3/11
f 10/3/11 9/2/11 15/22/11
f 16/24/12 14/18/12 12/6/3
f 12/6/3 11/5/2 16/24/12
f 13/25/13 16/24/13 11/10/13
f 11/10/14 10/9/14 13/25/14
f 3/26/15 7/27/15 12/28/15
f 12/28/16 9/29/17 3/26/18
f 9/29/17 12/28/16 14/18/19
f 14/18/20 15/17/20 9/29/20
f 4/30/21 2/31/21 13/23/21
f 13/23/21 15/22/21 4/30/21
f 6/16/22 8/15/22 14/18/22
f 14/18/22 16/24/22 6/16/22
f 2/32/23 6/16/23 16/24/23
f 16/24/24 13/25/24 2/32/24
f 20/33/25 17/34/25 18/35/25
f 18/35/25 19/36/25 20/33/25
f 22/37/26 23/38/26 19/36/26
f 19/36/26 18/35/26 22/37/26
f 23/38/27 24/39/28 20/40/29
f 20/40/29 19/36/30 23/38/27
f 24/39/31 21/41/31 17/42/31
f 17/42/31 20/40/31 24/39/31
f 21/43/32 22/37/33 18/35/34
f 18/35/34 17/44/35 21/43/32
f 25/45/36 26/46/36 28/47/36
f 28/47/36 27/48/36 25/45/36
f 25/49/37 27/48/37 31/50/37
f 31/50/38 29/51/38 25/49/38
f 27/48/39 28/47/40 32/52/41
f 32/52/41 31/50/42 27/48/39
f 28/47/43 26/53/44 30/54/45
f 30/54/45 32/52/46 28/47/43
f 26/55/47 25/56/48 29/57/49
f 29/57/49 30/58/50 26/55/47
f 33/59/51 34/60/51 37/61/51
f 37/61/51 36/62/51 33/59/51
f 34/60/52 35/63/52 38/64/52
f 38/64/52 37/61/52 34/60/52
f 35/65/53 33/59/53 36/62/53
f 36/62/53 38/66/53 35/65/53
f 35/67/54 34/60/54 33/59/54
f 37/61/55 38/64/55 39/68/55
f 37/61/56 39/69/56 36/62/56
f 38/66/57 36/62/57 39/70/57
f 40/71/51 41/72/51 42/73/51
f 42/73/51 43/74/51 40/71/51
f 41/72/52 44/75/52 45/76/52
f 45/76/52 42/73/52 41/72/52
f 44/77/53 40/71/53 43/74/53
f 43/74/53 45/78/53 44/77/53
f 44/79/54 41/72/54 40/71/54
f 42/73/55 45/76/55 46/80/55
f 42/73/58 46/81/58 43/74/58
f 45/78/57 43/74/57 46/82/57
f 47/83/59 49/84/59 50/85/59
f 50/85/59 48/86/59 47/83/59
f 47/87/60 51/88/60 53/89/60
f 53/89/61 49/84/61 47/87/61
f 49/84/62 53/89/62 54/90/62
f 54/90/63 50/85/63 49/84/63
f 50/85/64 54/90/64 52/91/64
f 52/91/65 48/92/65 50/85/65
f 48/93/66 52/94/66 51/95/66
f 51/95/67 47/96/67 48/93/67
f 55/97/68 58/98/68 59/99/68
f 59/99/68 56/100/68 55/97/68
f 56/100/69 59/99/69 60/101/69
f 60/101/69 57/102/69 56/100/69
f 57/103/70 60/104/70 58/98/70
f 58/98/70 55/97/70 57/103/70
f 57/105/54 55/97/54 56/100/54
f 59/99/71 61/106/71 60/101/71
f 59/99/72 58/98/72 61/107/72
f 60/104/73 61/108/73 58/98/73
f 62/109/68 65/110/68 64/111/68
f 64/111/68 63/112/68 62/109/68
f 63/112/69 64/111/69 67/113/69
f 67/113/69 66/114/69 63/112/69
f 66/115/70 67/116/70 65/110/70
f 65/110/70 62/109/70 66/115/70
f 66/117/54 62/109/54 63/112/54
f 64/111/71 68/118/71 67/113/71
f 64/111/74 65/110/74 68/119/74
f 67/116/73 68/120/73 65/110/73
