# 3ds Max Wavefront OBJ Exporter v0.97b - (c)2007 guruware
# File Created: 27.09.2017 21:13:04

#
# object BTR_B
#

v  52.5722 20.9387 -28.8799
v  52.5722 20.9387 29.5616
v  55.0943 6.8466 29.5616
v  55.0943 6.8466 -28.8799
v  -58.6180 6.8466 -28.8799
v  -58.6180 6.8466 29.5616
v  -65.9033 20.9387 29.5616
v  -65.9033 20.9387 -28.8799
v  45.5781 39.6489 -23.4046
v  45.5781 39.6489 24.0864
v  -55.4511 39.6489 -23.4046
v  -55.4511 39.6489 24.0864
v  -35.9757 39.6489 -33.8351
v  -35.9757 39.6489 33.2150
v  -3.3028 39.6489 33.2150
v  -3.3028 39.6489 -33.8351
v  -4.7498 20.9387 29.5616
v  -43.0648 20.9387 29.5616
v  -4.7498 20.9387 40.6494
v  -43.0648 20.9387 40.6494
v  -43.0648 20.9387 -28.8799
v  -4.7498 20.9387 -28.8799
v  -4.7498 20.9387 -41.2695
v  -43.0648 20.9387 -41.2695
v  -51.7444 18.1642 29.5348
v  -51.7444 18.1642 39.0418
v  -33.6600 18.1642 39.0418
v  -33.6600 18.1642 29.5348
v  -33.7858 0.0015 39.0418
v  -51.6186 0.0015 39.0418
v  -51.6186 0.0015 29.5348
v  -33.7858 0.0015 29.5348
v  -27.6751 15.4456 39.0418
v  -25.3924 9.0828 39.0418
v  -25.3924 9.0828 29.5348
v  -27.6751 15.4456 29.5348
v  -27.7118 2.7201 39.0418
v  -27.7118 2.7201 29.5348
v  -57.6787 15.4456 39.0418
v  -57.6787 15.4456 29.5348
v  -59.7461 9.0828 29.5348
v  -59.7461 9.0828 39.0418
v  -57.6420 2.7201 39.0418
v  -57.6420 2.7201 29.5348
v  -11.0588 18.1642 29.5348
v  -11.0588 18.1642 39.0418
v  7.0255 18.1642 39.0418
v  7.0255 18.1642 29.5348
v  6.8998 0.0015 39.0418
v  -10.9331 0.0015 39.0418
v  -10.9331 0.0015 29.5348
v  6.8998 0.0015 29.5348
v  13.0104 15.4456 39.0418
v  15.2931 9.0828 39.0418
v  15.2931 9.0828 29.5348
v  13.0104 15.4456 29.5348
v  12.9737 2.7201 39.0418
v  12.9737 2.7201 29.5348
v  -16.9931 15.4456 39.0418
v  -16.9931 15.4456 29.5348
v  -19.0606 9.0828 29.5348
v  -19.0606 9.0828 39.0418
v  -16.9565 2.7201 39.0418
v  -16.9565 2.7201 29.5348
v  29.0102 18.1642 29.5348
v  29.0102 18.1642 39.0418
v  47.0945 18.1642 39.0418
v  47.0945 18.1642 29.5348
v  46.9688 0.0015 39.0418
v  29.1359 0.0015 39.0418
v  29.1359 0.0015 29.5348
v  46.9688 0.0015 29.5348
v  53.0794 15.4456 39.0418
v  55.3621 9.0828 39.0418
v  55.3621 9.0828 29.5348
v  53.0794 15.4456 29.5348
v  53.0427 2.7201 39.0418
v  53.0427 2.7201 29.5348
v  23.0759 15.4456 39.0418
v  23.0759 15.4456 29.5348
v  21.0085 9.0828 29.5348
v  21.0085 9.0828 39.0418
v  23.1126 2.7201 39.0418
v  23.1126 2.7201 29.5348
v  -51.7444 18.1642 -29.5348
v  -33.6600 18.1642 -29.5348
v  -33.6600 18.1642 -39.0418
v  -51.7444 18.1642 -39.0418
v  -33.7858 0.0015 -39.0418
v  -33.7858 0.0015 -29.5348
v  -51.6186 0.0015 -29.5348
v  -51.6186 0.0015 -39.0418
v  -27.6751 15.4456 -39.0418
v  -27.6751 15.4456 -29.5348
v  -25.3924 9.0828 -29.5348
v  -25.3924 9.0828 -39.0418
v  -27.7118 2.7201 -39.0418
v  -27.7118 2.7201 -29.5348
v  -57.6787 15.4456 -39.0418
v  -59.7461 9.0828 -39.0418
v  -59.7461 9.0828 -29.5348
v  -57.6787 15.4456 -29.5348
v  -57.6420 2.7201 -39.0418
v  -57.6420 2.7201 -29.5348
v  -11.0588 18.1642 -29.5348
v  7.0255 18.1642 -29.5348
v  7.0255 18.1642 -39.0418
v  -11.0588 18.1642 -39.0418
v  6.8998 0.0015 -39.0418
v  6.8998 0.0015 -29.5348
v  -10.9331 0.0015 -29.5348
v  -10.9331 0.0015 -39.0418
v  13.0104 15.4456 -39.0418
v  13.0104 15.4456 -29.5348
v  15.2931 9.0828 -29.5348
v  15.2931 9.0828 -39.0418
v  12.9737 2.7201 -39.0418
v  12.9737 2.7201 -29.5348
v  -16.9931 15.4456 -39.0418
v  -19.0606 9.0828 -39.0418
v  -19.0606 9.0828 -29.5348
v  -16.9931 15.4456 -29.5348
v  -16.9565 2.7201 -39.0418
v  -16.9565 2.7201 -29.5348
v  29.0102 18.1642 -29.5348
v  47.0945 18.1642 -29.5348
v  47.0945 18.1642 -39.0418
v  29.0102 18.1642 -39.0418
v  46.9688 0.0015 -39.0418
v  46.9688 0.0015 -29.5348
v  29.1359 0.0015 -29.5348
v  29.1359 0.0015 -39.0418
v  53.0794 15.4456 -39.0418
v  53.0794 15.4456 -29.5348
v  55.3621 9.0828 -29.5348
v  55.3621 9.0828 -39.0418
v  53.0427 2.7201 -39.0418
v  53.0427 2.7201 -29.5348
v  23.0759 15.4456 -39.0418
v  21.0085 9.0828 -39.0418
v  21.0085 9.0828 -29.5348
v  23.0759 15.4456 -29.5348
v  23.1126 2.7201 -39.0418
v  23.1126 2.7201 -29.5348
v  -24.7218 48.0620 -15.1735
v  -24.7218 48.0620 13.0502
v  3.1285 48.0620 13.0502
v  3.1285 48.0620 -15.1735
v  -0.6536 39.5961 -15.1735
v  -0.6536 39.5961 13.0502
v  -34.1075 40.6717 8.2614
v  -24.7218 39.5961 13.0502
v  -34.1168 44.1637 8.2614
v  -34.1168 44.1637 -10.3847
v  -34.1075 40.6717 -10.3847
v  -24.7218 39.5961 -15.1735
v  -26.0582 40.8544 -4.9511
v  -26.0582 47.3763 -0.9439
v  -42.7441 46.5381 -2.4889
v  -42.7441 42.5307 -4.9511
v  -26.0582 47.3763 -8.9583
v  -42.7441 46.5381 -7.4133
v  -26.0582 40.8544 5.0676
v  -42.7441 42.5307 5.0676
v  -42.7441 46.5381 2.6054
v  -26.0582 47.3763 1.0604
v  -42.7441 46.5381 7.5298
v  -26.0582 47.3763 9.0748
# 168 vertices

vn 0.9844 0.1762 -0.0000
vn -0.8883 -0.4592 -0.0000
vn 0.0000 -1.0000 -0.0000
vn 0.9367 0.3501 -0.0000
vn -0.8730 0.4877 -0.0000
vn 0.0000 1.0000 -0.0000
vn 0.0000 0.0000 1.0000
vn 0.0000 0.3693 0.9293
vn 0.1756 0.3442 0.9223
vn -0.3835 0.4567 0.8027
vn 0.0000 0.0000 -1.0000
vn 0.0000 0.3693 -0.9293
vn 0.1971 0.3457 -0.9174
vn -0.4201 0.4656 -0.7789
vn -0.2131 0.9770 -0.0000
vn 0.2116 0.9774 -0.0000
vn 0.2089 -0.9779 -0.0000
vn -0.2104 -0.9776 -0.0000
vn 0.7355 0.6776 -0.0000
vn 1.0000 -0.0025 -0.0000
vn 0.7319 -0.6815 -0.0000
vn -0.7467 0.6651 -0.0000
vn -1.0000 -0.0026 -0.0000
vn -0.7431 -0.6692 -0.0000
vn 0.9130 -0.4079 -0.0000
vn -0.4543 -0.0004 0.8909
vn -1.0000 -0.0027 -0.0000
vn -0.3833 0.9236 -0.0000
vn -0.4543 -0.0004 -0.8909
vn -0.1139 -0.9935 -0.0000
vn -0.0525 -0.5228 0.8508
vn -0.0502 0.9987 -0.0000
vn -0.0525 -0.5228 -0.8508
vn -1.0000 0.0000 -0.0000
vn -0.0502 0.9987 0.0000
# 35 vertex normals

vt 0.4651 0.1126 0.0000
vt 0.1477 0.1126 0.0000
vt 0.1477 0.0215 0.0000
vt 0.4651 0.0215 0.0000
vt 0.4650 0.9845 0.0000
vt 0.1476 0.9845 0.0000
vt 0.1476 0.8862 0.0000
vt 0.4650 0.8862 0.0000
vt 0.6934 0.0426 0.0000
vt 0.8850 0.0426 0.0000
vt 0.8850 0.4156 0.0000
vt 0.6934 0.4156 0.0000
vt 0.4354 0.2211 0.0000
vt 0.1774 0.2210 0.0000
vt 0.4353 0.7698 0.0000
vt 0.1774 0.7697 0.0000
vt 0.4920 0.6640 0.0000
vt 0.1278 0.6640 0.0000
vt 0.1278 0.4865 0.0000
vt 0.4920 0.4865 0.0000
vt 0.6390 0.2193 0.0000
vt 0.6390 0.0937 0.0000
vt 0.0185 0.4944 0.0000
vt 0.0184 0.7025 0.0000
vt 0.6390 0.4073 0.0000
vt 0.6390 0.0187 0.0000
vt 0.0404 0.1780 0.0000
vt 0.1459 0.2170 0.0000
vt 0.1493 0.7788 0.0000
vt 0.0447 0.8378 0.0000
vt 0.6026 0.0936 0.0000
vt 0.6026 0.2193 0.0000
vt 0.9394 0.0937 0.0000
vt 0.9394 0.2193 0.0000
vt 0.6013 0.4944 0.0000
vt 0.6013 0.7025 0.0000
vt 0.9394 0.4073 0.0000
vt 0.9394 0.0188 0.0000
vt 0.4715 0.2159 0.0000
vt 0.5769 0.1768 0.0000
vt 0.4670 0.7814 0.0000
vt 0.5716 0.8405 0.0000
vt 0.9800 0.0937 0.0000
vt 0.9800 0.2193 0.0000
vt 0.6148 0.9852 0.0000
vt 0.6148 0.9379 0.0000
vt 0.7049 0.9379 0.0000
vt 0.7049 0.9852 0.0000
vt 0.9431 0.9747 0.0000
vt 0.8542 0.9747 0.0000
vt 0.8542 0.9274 0.0000
vt 0.9431 0.9274 0.0000
vt 0.7376 0.9379 0.0000
vt 0.7713 0.9379 0.0000
vt 0.7713 0.9852 0.0000
vt 0.7376 0.9852 0.0000
vt 0.7347 0.9243 0.0000
vt 0.7461 0.8926 0.0000
vt 0.8050 0.9379 0.0000
vt 0.8050 0.9852 0.0000
vt 0.8382 0.9852 0.0000
vt 0.8382 0.9379 0.0000
vt 0.9437 0.8369 0.0000
vt 0.8536 0.8369 0.0000
vt 0.6154 0.8474 0.0000
vt 0.7042 0.8474 0.0000
vt 0.9849 0.8821 0.0000
vt 0.9733 0.9138 0.0000
vt 0.7345 0.8609 0.0000
vt 0.9735 0.8504 0.0000
vt 0.5822 0.9379 0.0000
vt 0.5822 0.9852 0.0000
vt 0.5489 0.9852 0.0000
vt 0.5489 0.9379 0.0000
vt 0.5852 0.9243 0.0000
vt 0.5749 0.8926 0.0000
vt 0.5155 0.9379 0.0000
vt 0.5155 0.9852 0.0000
vt 0.4826 0.9852 0.0000
vt 0.4826 0.9379 0.0000
vt 0.8137 0.8821 0.0000
vt 0.8242 0.9138 0.0000
vt 0.5854 0.8609 0.0000
vt 0.8240 0.8504 0.0000
vt 0.7521 0.5764 0.0000
vt 0.9307 0.5764 0.0000
vt 0.9307 0.7527 0.0000
vt 0.7521 0.7527 0.0000
vt 0.7521 0.8114 0.0000
vt 0.9307 0.8114 0.0000
vt 0.9159 0.4963 0.0000
vt 0.9683 0.5382 0.0000
vt 0.9004 0.5120 0.0000
vt 0.9004 0.4899 0.0000
vt 0.7824 0.5120 0.0000
vt 0.7824 0.4899 0.0000
vt 0.6985 0.7288 0.0000
vt 0.6985 0.5764 0.0000
vt 0.9843 0.7288 0.0000
vt 0.9843 0.5764 0.0000
vt 0.7668 0.4963 0.0000
vt 0.7145 0.5382 0.0000
vt 0.7521 0.4301 0.0000
vt 0.9307 0.4301 0.0000
vt 0.0585 0.1558 0.0000
vt 0.0957 0.1555 0.0000
vt 0.0877 0.0759 0.0000
vt 0.0648 0.0760 0.0000
vt 0.1340 0.1479 0.0000
vt 0.1112 0.0712 0.0000
vt 0.0217 0.1496 0.0000
vt 0.0422 0.0722 0.0000
vt 0.0750 0.0555 0.0000
# 113 texture coords

g BTR_B
s off
f 1/1/1 2/2/1 3/3/1 4/4/1 
f 5/5/2 6/6/2 7/7/2 8/8/2 
f 6/9/3 5/10/3 4/11/3 3/12/3 
f 1/1/4 9/13/4 10/14/4 2/2/4 
f 11/15/5 8/8/5 7/7/5 12/16/5 
f 13/17/6 14/18/6 15/19/6 16/20/6 
f 11/15/6 12/16/6 14/18/6 13/17/6 
f 10/14/6 9/13/6 16/20/6 15/19/6 
f 6/9/7 3/12/7 17/21/7 18/22/7 
f 19/23/8 15/19/8 14/18/8 20/24/8 
f 3/12/7 2/25/7 17/21/7 
f 18/22/7 7/26/7 6/9/7 
f 19/23/9 2/27/9 10/28/9 15/19/9 
f 12/29/10 7/30/10 20/24/10 14/18/10 
f 7/26/3 18/22/3 20/31/3 
f 18/22/3 17/21/3 19/32/3 20/31/3 
f 17/21/3 2/25/3 19/32/3 
f 5/10/11 21/33/11 22/34/11 4/11/11 
f 23/35/12 24/36/12 13/17/12 16/20/12 
f 4/11/11 22/34/11 1/37/11 
f 21/33/11 5/10/11 8/38/11 
f 23/35/13 16/20/13 9/39/13 1/40/13 
f 11/41/14 13/17/14 24/36/14 8/42/14 
f 8/38/3 24/43/3 21/33/3 
f 21/33/3 24/43/3 23/44/3 22/34/3 
f 22/34/3 23/44/3 1/37/3 
s 2048
f 25/45/15 26/46/15 27/47/16 28/48/16 
f 29/49/17 30/50/18 31/51/18 32/52/17 
f 33/53/19 34/54/20 35/55/20 36/56/19 
s 4
f 33/57/7 27/47/7 34/58/7 
s 2048
f 37/59/21 38/60/21 35/55/20 34/54/20 
f 27/47/16 33/53/19 36/56/19 28/48/16 
f 32/61/17 38/60/21 37/59/21 29/62/17 
s 4
f 28/63/11 32/52/11 31/51/11 25/64/11 
f 26/46/7 30/65/7 29/66/7 27/47/7 
f 35/67/11 38/68/11 32/52/11 28/63/11 
f 29/66/7 37/69/7 34/58/7 27/47/7 
f 28/63/11 36/70/11 35/67/11 
s 2048
f 39/71/22 40/72/22 41/73/23 42/74/23 
s 4
f 39/75/7 42/76/7 26/46/7 
s 2048
f 43/77/24 42/74/23 41/73/23 44/78/24 
f 26/46/15 25/45/15 40/72/22 39/71/22 
f 31/79/18 30/80/18 43/77/24 44/78/24 
s 4
f 41/81/11 25/64/11 31/51/11 44/82/11 
f 30/65/7 26/46/7 42/76/7 43/83/7 
f 25/64/11 41/81/11 40/84/11 
s 2048
f 45/45/15 46/46/15 47/47/16 48/48/16 
f 49/49/17 50/50/18 51/51/18 52/52/17 
f 53/53/19 54/54/20 55/55/20 56/56/19 
s 4
f 53/57/7 47/47/7 54/58/7 
s 2048
f 57/59/21 58/60/21 55/55/20 54/54/20 
f 47/47/16 53/53/19 56/56/19 48/48/16 
f 52/61/17 58/60/21 57/59/21 49/62/17 
s 4
f 48/63/11 52/52/11 51/51/11 45/64/11 
f 46/46/7 50/65/7 49/66/7 47/47/7 
f 55/67/11 58/68/11 52/52/11 48/63/11 
f 49/66/7 57/69/7 54/58/7 47/47/7 
f 48/63/11 56/70/11 55/67/11 
s 2048
f 59/71/22 60/72/22 61/73/23 62/74/23 
s 4
f 59/75/7 62/76/7 46/46/7 
s 2048
f 63/77/24 62/74/23 61/73/23 64/78/24 
f 46/46/15 45/45/15 60/72/22 59/71/22 
f 51/79/18 50/80/18 63/77/24 64/78/24 
s 4
f 61/81/11 45/64/11 51/51/11 64/82/11 
f 50/65/7 46/46/7 62/76/7 63/83/7 
f 45/64/11 61/81/11 60/84/11 
s 2048
f 65/45/15 66/46/15 67/47/16 68/48/16 
f 69/49/17 70/50/18 71/51/18 72/52/17 
f 73/53/19 74/54/20 75/55/20 76/56/19 
s 4
f 73/57/7 67/47/7 74/58/7 
s 2048
f 77/59/21 78/60/21 75/55/20 74/54/20 
f 67/47/16 73/53/19 76/56/19 68/48/16 
f 72/61/17 78/60/21 77/59/21 69/62/17 
s 4
f 68/63/11 72/52/11 71/51/11 65/64/11 
f 66/46/7 70/65/7 69/66/7 67/47/7 
f 75/67/11 78/68/11 72/52/11 68/63/11 
f 69/66/7 77/69/7 74/58/7 67/47/7 
f 68/63/11 76/70/11 75/67/11 
s 2048
f 79/71/22 80/72/22 81/73/23 82/74/23 
s 4
f 79/75/7 82/76/7 66/46/7 
s 2048
f 83/77/24 82/74/23 81/73/23 84/78/24 
f 66/46/15 65/45/15 80/72/22 79/71/22 
f 71/79/18 70/80/18 83/77/24 84/78/24 
s 4
f 81/81/11 65/64/11 71/51/11 84/82/11 
f 70/65/7 66/46/7 82/76/7 83/83/7 
f 65/64/11 81/81/11 80/84/11 
s 2048
f 85/45/15 86/48/16 87/47/16 88/46/15 
f 89/49/17 90/52/17 91/51/18 92/50/18 
f 93/53/19 94/56/19 95/55/20 96/54/20 
s 4
f 93/57/11 96/58/11 87/47/11 
s 2048
f 97/59/21 96/54/20 95/55/20 98/60/21 
f 87/47/16 86/48/16 94/56/19 93/53/19 
f 90/61/17 89/62/17 97/59/21 98/60/21 
s 4
f 86/63/7 85/64/7 91/51/7 90/52/7 
f 88/46/11 87/47/11 89/66/11 92/65/11 
f 95/67/7 86/63/7 90/52/7 98/68/7 
f 89/66/11 87/47/11 96/58/11 97/69/11 
f 86/63/7 95/67/7 94/70/7 
s 2048
f 99/71/22 100/74/23 101/73/23 102/72/22 
s 4
f 99/75/11 88/46/11 100/76/11 
s 2048
f 103/77/24 104/78/24 101/73/23 100/74/23 
f 88/46/15 99/71/22 102/72/22 85/45/15 
f 91/79/18 104/78/24 103/77/24 92/80/18 
s 4
f 101/81/7 104/82/7 91/51/7 85/64/7 
f 92/65/11 103/83/11 100/76/11 88/46/11 
f 85/64/7 102/84/7 101/81/7 
s 2048
f 105/45/15 106/48/16 107/47/16 108/46/15 
f 109/49/17 110/52/17 111/51/18 112/50/18 
f 113/53/19 114/56/19 115/55/20 116/54/20 
s 4
f 113/57/11 116/58/11 107/47/11 
s 2048
f 117/59/21 116/54/20 115/55/20 118/60/21 
f 107/47/16 106/48/16 114/56/19 113/53/19 
f 110/61/17 109/62/17 117/59/21 118/60/21 
s 4
f 106/63/7 105/64/7 111/51/7 110/52/7 
f 108/46/11 107/47/11 109/66/11 112/65/11 
f 115/67/7 106/63/7 110/52/7 118/68/7 
f 109/66/11 107/47/11 116/58/11 117/69/11 
f 106/63/7 115/67/7 114/70/7 
s 2048
f 119/71/22 120/74/23 121/73/23 122/72/22 
s 4
f 119/75/11 108/46/11 120/76/11 
s 2048
f 123/77/24 124/78/24 121/73/23 120/74/23 
f 108/46/15 119/71/22 122/72/22 105/45/15 
f 111/79/18 124/78/24 123/77/24 112/80/18 
s 4
f 121/81/7 124/82/7 111/51/7 105/64/7 
f 112/65/11 123/83/11 120/76/11 108/46/11 
f 105/64/7 122/84/7 121/81/7 
s 2048
f 125/45/15 126/48/16 127/47/16 128/46/15 
f 129/49/17 130/52/17 131/51/18 132/50/18 
f 133/53/19 134/56/19 135/55/20 136/54/20 
s 4
f 133/57/11 136/58/11 127/47/11 
s 2048
f 137/59/21 136/54/20 135/55/20 138/60/21 
f 127/47/16 126/48/16 134/56/19 133/53/19 
f 130/61/17 129/62/17 137/59/21 138/60/21 
s 4
f 126/63/7 125/64/7 131/51/7 130/52/7 
f 128/46/11 127/47/11 129/66/11 132/65/11 
f 135/67/7 126/63/7 130/52/7 138/68/7 
f 129/66/11 127/47/11 136/58/11 137/69/11 
f 126/63/7 135/67/7 134/70/7 
s 2048
f 139/71/22 140/74/23 141/73/23 142/72/22 
s 4
f 139/75/11 128/46/11 140/76/11 
s 2048
f 143/77/24 144/78/24 141/73/23 140/74/23 
f 128/46/15 139/71/22 142/72/22 125/45/15 
f 131/79/18 144/78/24 143/77/24 132/80/18 
s 4
f 141/81/7 144/82/7 131/51/7 125/64/7 
f 132/65/11 143/83/11 140/76/11 128/46/11 
f 125/64/7 142/84/7 141/81/7 
s off
f 145/85/6 146/86/6 147/87/6 148/88/6 
f 149/89/25 148/88/25 147/87/25 150/90/25 
f 151/91/26 152/92/26 146/86/26 153/93/26 
f 151/94/27 153/93/27 154/95/27 155/96/27 
f 149/97/11 156/98/11 145/85/11 148/88/11 
f 154/95/28 153/93/28 146/86/28 145/85/28 
f 150/99/7 147/87/7 146/86/7 152/100/7 
f 155/101/29 154/95/29 145/85/29 156/102/29 
f 156/103/30 152/104/30 151/94/30 155/96/30 
f 157/105/31 158/106/31 159/107/31 160/108/31 
f 158/106/32 161/109/32 162/110/32 159/107/32 
f 161/111/33 157/105/33 160/108/33 162/112/33 
f 160/108/34 159/107/34 162/113/34 
f 163/105/33 164/108/33 165/107/33 166/106/33 
f 166/106/35 165/107/35 167/110/35 168/109/35 
f 168/111/31 167/112/31 164/108/31 163/105/31 
f 164/108/34 167/113/34 165/107/34 
# 129 polygons - 34 triangles

