# 3ds Max Wavefront OBJ Exporter v0.97b - (c)2007 guruware
# File Created: 27.09.2017 21:15:28

#
# object FighterAircraft_B
#

v  47.3299 35.8265 61.3940
v  69.6444 35.8265 29.2650
v  69.9512 37.9805 29.2650
v  47.0293 37.9805 61.3940
v  -63.6483 37.9800 -0.0000
v  -63.5472 35.8265 -0.0000
v  39.5179 35.8265 -0.0000
v  40.6691 37.9805 -0.0000
v  -4.2209 37.9802 18.5279
v  39.1262 37.9824 1.4656
v  -4.2213 42.2111 18.5275
v  -11.7047 56.0282 0.0000
v  39.1276 54.7440 1.4647
v  39.1293 56.0282 -0.0000
v  57.5875 70.0393 13.1036
v  57.5877 69.7427 13.4145
v  67.7717 69.6907 13.3751
v  67.7715 69.9928 13.0579
v  58.7519 54.7306 1.4700
v  58.7517 56.0352 -0.0000
v  47.3299 35.8265 -61.3940
v  47.0293 37.9805 -61.3940
v  69.9512 37.9805 -29.2650
v  69.6444 35.8265 -29.2650
v  -4.2209 37.9802 -18.5279
v  39.1262 37.9824 -1.4656
v  -4.2213 42.2111 -18.5275
v  39.1276 54.7440 -1.4647
v  57.5875 70.0393 -13.1036
v  67.7715 69.9928 -13.0579
v  67.7717 69.6907 -13.3751
v  57.5877 69.7427 -13.4145
v  58.7519 54.7306 -1.4700
v  34.1381 31.4643 37.7469
v  34.1381 35.6349 35.3570
v  -2.7415 35.6349 35.3570
v  -2.7415 31.4643 37.7469
v  34.1381 31.4799 32.9401
v  -2.7415 31.4799 32.9401
v  -7.7583 32.8597 35.3480
v  13.7724 31.4643 26.8057
v  13.7724 35.6349 24.4158
v  -23.1072 35.6349 24.4158
v  -23.1072 31.4643 26.8057
v  13.7724 31.4799 21.9989
v  -23.1072 31.4799 21.9989
v  -28.1240 32.8597 24.4068
v  34.1381 31.4643 -37.7469
v  -2.7415 31.4643 -37.7469
v  -2.7415 35.6349 -35.3570
v  34.1381 35.6349 -35.3570
v  -2.7415 31.4799 -32.9401
v  34.1381 31.4799 -32.9401
v  -7.7583 32.8597 -35.3480
v  13.7724 31.4643 -26.8057
v  -23.1072 31.4643 -26.8057
v  -23.1072 35.6349 -24.4158
v  13.7724 35.6349 -24.4158
v  -23.1072 31.4799 -21.9989
v  13.7724 31.4799 -21.9989
v  -28.1240 32.8597 -24.4068
# 61 vertices

vn 0.8177 -0.0012 0.5756
vn -0.4842 -0.0452 0.8738
vn 0.6828 -0.2311 -0.6931
vn -0.0000 -1.0000 -0.0000
vn -0.0000 1.0000 0.0000
vn -0.0000 1.0000 -0.0000
vn 0.0001 1.0000 -0.0000
vn -0.2517 0.7244 0.6418
vn 0.0028 0.7984 0.6021
vn 0.3663 0.0000 0.9305
vn -0.2976 0.0001 0.9547
vn 0.0064 0.7238 0.6900
vn 0.9042 -0.3175 -0.2856
vn -0.0002 0.6832 -0.7302
vn -0.7202 0.5185 0.4610
vn -0.0005 -0.6226 0.7825
vn -0.0003 0.0001 1.0000
vn 0.5983 -0.5992 -0.5319
vn 0.5357 -0.6278 0.5647
vn 0.8177 -0.0012 -0.5756
vn -0.4842 -0.0452 -0.8738
vn 0.6828 -0.2311 0.6931
vn -0.0000 -1.0000 0.0000
vn 0.0001 1.0000 0.0000
vn -0.2517 0.7244 -0.6418
vn 0.0028 0.7984 -0.6021
vn 0.3663 0.0000 -0.9305
vn -0.2976 0.0001 -0.9547
vn 0.0064 0.7238 -0.6900
vn 0.9042 -0.3175 0.2856
vn -0.0002 0.6832 0.7302
vn -0.7202 0.5185 -0.4610
vn -0.0005 -0.6226 -0.7825
vn -0.0003 0.0001 -1.0000
vn 0.5983 -0.5992 0.5319
vn 0.5357 -0.6278 -0.5647
vn -0.0000 0.4972 0.8676
vn -0.0000 0.5028 -0.8644
vn 0.0000 -1.0000 -0.0033
vn 1.0000 0.0000 -0.0000
vn -0.2666 0.4846 -0.8331
vn -0.2666 0.4792 0.8362
vn -0.2666 -0.9638 -0.0031
vn -0.0000 0.4972 -0.8676
vn -0.0000 0.5028 0.8644
vn 0.0000 -1.0000 0.0033
vn -0.2666 0.4846 0.8331
vn -0.2666 0.4792 -0.8362
vn -0.2666 -0.9638 0.0031
# 49 vertex normals

vt 0.6976 0.0445 0.0000
vt 0.9021 0.0220 0.0000
vt 0.9043 0.0332 0.0000
vt 0.6980 0.0559 0.0000
vt 0.6866 0.0544 0.0000
vt 0.6954 0.7215 0.0000
vt 0.6841 0.7210 0.0000
vt 0.9155 0.0312 0.0000
vt 0.9761 0.2436 0.0000
vt 0.9634 0.2428 0.0000
vt 0.5414 0.9829 0.0000
vt 0.4318 0.9738 0.0000
vt 0.4252 0.6178 0.0000
vt 0.5702 0.8684 0.0000
vt 0.7630 0.4012 0.0000
vt 0.9527 0.2461 0.0000
vt 0.2237 0.0211 0.0000
vt 0.3973 0.4673 0.0000
vt 0.2234 0.4286 0.0000
vt 0.2439 0.8045 0.0000
vt 0.2229 0.8079 0.0000
vt 0.4261 0.4628 0.0000
vt 0.3738 0.8188 0.0000
vt 0.8310 0.7254 0.0000
vt 0.8342 0.7254 0.0000
vt 0.8347 0.7591 0.0000
vt 0.8314 0.7591 0.0000
vt 0.8438 0.9189 0.0000
vt 0.8290 0.9191 0.0000
vt 0.6937 0.9805 0.0000
vt 0.7610 0.7905 0.0000
vt 0.6799 0.9752 0.0000
vt 0.7579 0.7894 0.0000
vt 0.9816 0.9744 0.0000
vt 0.9063 0.7875 0.0000
vt 0.2235 0.9554 0.0000
vt 0.2253 0.9727 0.0000
vt 0.3785 0.8339 0.0000
vt 0.6371 0.0486 0.0000
vt 0.6367 0.0600 0.0000
vt 0.4309 0.0363 0.0000
vt 0.4331 0.0252 0.0000
vt 0.6480 0.0586 0.0000
vt 0.6473 0.7237 0.0000
vt 0.6360 0.7242 0.0000
vt 0.3709 0.2451 0.0000
vt 0.3582 0.2459 0.0000
vt 0.4198 0.0343 0.0000
vt 0.6837 0.9005 0.0000
vt 0.7305 0.8011 0.0000
vt 0.5701 0.4042 0.0000
vt 0.3816 0.2485 0.0000
vt 0.0494 0.4670 0.0000
vt 0.2019 0.8043 0.0000
vt 0.0742 0.8210 0.0000
vt 0.0207 0.4625 0.0000
vt 0.8333 0.5367 0.0000
vt 0.8330 0.5734 0.0000
vt 0.8301 0.5735 0.0000
vt 0.8304 0.5367 0.0000
vt 0.8243 0.7163 0.0000
vt 0.8376 0.7162 0.0000
vt 0.8964 0.6004 0.0000
vt 0.9593 0.7689 0.0000
vt 0.8991 0.5994 0.0000
vt 0.9715 0.7640 0.0000
vt 0.7022 0.7679 0.0000
vt 0.7665 0.5999 0.0000
vt 0.2215 0.9527 0.0000
vt 0.2402 0.9781 0.0000
vt 0.3952 0.8382 0.0000
vt 0.9505 0.5659 0.0000
vt 0.9219 0.5659 0.0000
vt 0.9220 0.3464 0.0000
vt 0.9505 0.3464 0.0000
vt 0.8933 0.5659 0.0000
vt 0.8934 0.3464 0.0000
vt 0.9791 0.5659 0.0000
vt 0.9791 0.3464 0.0000
vt 0.9362 0.5906 0.0000
vt 0.9077 0.3155 0.0000
vt 0.9363 0.3155 0.0000
vt 0.9648 0.3155 0.0000
# 83 texture coords

g FighterAircraft_B
s off
f 1/1/1 2/2/1 3/3/1 4/4/1 
f 1/5/2 4/4/2 5/6/2 6/7/2 
f 3/3/3 2/8/3 7/9/3 8/10/3 
f 2/11/4 1/12/4 6/13/4 7/14/4 
f 9/15/5 4/4/5 10/16/5 
f 9/15/6 5/6/6 4/4/6 
f 3/3/7 8/10/7 10/16/7 4/4/7 
f 5/17/8 11/18/8 12/19/8 
f 13/20/9 14/21/9 12/19/9 11/18/9 
f 13/20/10 11/18/10 9/22/10 10/23/10 
f 11/18/11 5/17/11 9/22/11 
f 15/24/12 16/25/12 17/26/12 18/27/12 
f 19/28/13 20/29/13 18/27/13 17/26/13 
f 20/29/14 14/30/14 15/31/14 18/27/14 
f 14/30/15 13/32/15 16/33/15 15/31/15 
f 13/34/16 19/28/16 17/26/16 16/35/16 
f 19/36/17 13/20/17 10/23/17 
f 20/37/18 19/36/18 8/38/18 
f 19/36/19 10/23/19 8/38/19 
f 21/39/20 22/40/20 23/41/20 24/42/20 
f 21/43/21 6/44/21 5/45/21 22/40/21 
f 23/41/22 8/46/22 7/47/22 24/48/22 
f 24/49/23 7/14/23 6/13/23 21/50/23 
f 25/51/6 26/52/6 22/40/6 
f 25/51/5 22/40/5 5/45/5 
f 23/41/24 22/40/24 26/52/24 8/46/24 
f 5/17/25 12/19/25 27/53/25 
f 28/54/26 27/53/26 12/19/26 14/21/26 
f 28/54/27 26/55/27 25/56/27 27/53/27 
f 27/53/28 25/56/28 5/17/28 
f 29/57/29 30/58/29 31/59/29 32/60/29 
f 33/61/30 31/59/30 30/58/30 20/62/30 
f 20/62/31 30/58/31 29/63/31 14/64/31 
f 14/64/32 29/63/32 32/65/32 28/66/32 
f 28/67/33 32/68/33 31/59/33 33/61/33 
f 33/69/34 26/55/34 28/54/34 
f 20/37/35 8/38/35 33/70/35 
f 33/70/36 8/38/36 26/71/36 
f 34/72/37 35/73/37 36/74/37 37/75/37 
f 35/73/38 38/76/38 39/77/38 36/74/38 
f 38/78/39 34/72/39 37/75/39 39/79/39 
f 38/80/40 35/73/40 34/72/40 
f 36/74/41 39/77/41 40/81/41 
f 36/74/42 40/82/42 37/75/42 
f 39/79/43 37/75/43 40/83/43 
f 41/72/37 42/73/37 43/74/37 44/75/37 
f 42/73/38 45/76/38 46/77/38 43/74/38 
f 45/78/39 41/72/39 44/75/39 46/79/39 
f 45/80/40 42/73/40 41/72/40 
f 43/74/41 46/77/41 47/81/41 
f 43/74/42 47/82/42 44/75/42 
f 46/79/43 44/75/43 47/83/43 
f 48/72/44 49/75/44 50/74/44 51/73/44 
f 51/73/45 50/74/45 52/77/45 53/76/45 
f 53/78/46 52/79/46 49/75/46 48/72/46 
f 53/80/40 48/72/40 51/73/40 
f 50/74/47 54/81/47 52/77/47 
f 50/74/48 49/75/48 54/82/48 
f 52/79/49 54/83/49 49/75/49 
f 55/72/44 56/75/44 57/74/44 58/73/44 
f 58/73/45 57/74/45 59/77/45 60/76/45 
f 60/78/46 59/79/46 56/75/46 55/72/46 
f 60/80/40 55/72/40 58/73/40 
f 57/74/47 61/81/47 59/77/47 
f 57/74/48 56/75/48 61/82/48 
f 59/79/49 61/83/49 56/75/49 
# 36 polygons - 30 triangles

