# Exported from Wings 3D 2.1.5
mtllib untitled.mtl
o HelicopterScrew_B
#14 vertices, 8 faces
v -16.50370000 63.70680000 6.25600000
v -16.50370000 63.70680000 -5.38290000
v 1.60650000 63.70680000 -5.38290000
v 1.60650000 63.70680000 6.25600000
v -16.50370000 66.06900000 6.25600000
v 1.60650000 66.06900000 6.25600000
v 1.60650000 66.06900000 -5.38290000
v -16.50370000 66.06900000 -5.38290000
v -7.44860000 64.94180000 4.65270000
v -7.44860000 64.94180000 -3.77950000
v -94.79450000 64.94180000 -7.68560000
v -94.79450000 64.94180000 8.55880000
v 79.89730000 64.94180000 8.55880000
v 79.89730000 64.94180000 -7.68560000
vt 2.4200000e-2 0.17270000
vt 2.4200000e-2 0.26120000
vt 2.9500000e-2 0.46830000
vt 2.9500000e-2 0.59640000
vt 4.6200000e-2 0.45160000
vt 4.6200000e-2 0.46830000
vt 4.6200000e-2 0.59640000
vt 4.6200000e-2 0.61310000
vt 0.12850000 0.45160000
vt 0.12850000 0.46830000
vt 0.12850000 0.59640000
vt 0.12850000 0.61310000
vt 0.14520000 0.46830000
vt 0.14520000 0.59640000
vt 0.22750000 0.46830000
vt 0.22750000 0.59640000
vt 0.50000000 0.19400000
vt 0.50000000 0.23990000
vt 0.97580000 0.17270000
vt 0.97580000 0.26120000
vn 0.0000000e+0 -1.00000000 0.0000000e+0
vn 0.0000000e+0 0.0000000e+0 1.00000000
vn -1.00000000 0.0000000e+0 0.0000000e+0
vn 0.0000000e+0 -1.00000000 0.0000000e+0
vn 0.0000000e+0 0.0000000e+0 -1.00000000
vn -1.00000000 0.0000000e+0 0.0000000e+0
vn 0.0000000e+0 -1.00000000 0.0000000e+0
vn 1.00000000 0.0000000e+0 0.0000000e+0
vn 0.0000000e+0 0.0000000e+0 -1.00000000
vn 0.0000000e+0 -1.00000000 0.0000000e+0
vn 0.0000000e+0 0.0000000e+0 1.00000000
vn 1.00000000 0.0000000e+0 0.0000000e+0
vn 0.0000000e+0 1.00000000 0.0000000e+0
vn 0.0000000e+0 0.0000000e+0 1.00000000
vn -1.00000000 0.0000000e+0 0.0000000e+0
vn 0.0000000e+0 1.00000000 0.0000000e+0
vn 0.0000000e+0 0.0000000e+0 1.00000000
vn 1.00000000 0.0000000e+0 0.0000000e+0
vn 0.0000000e+0 1.00000000 0.0000000e+0
vn 1.00000000 0.0000000e+0 0.0000000e+0
vn 0.0000000e+0 0.0000000e+0 -1.00000000
vn 0.0000000e+0 1.00000000 0.0000000e+0
vn 0.0000000e+0 0.0000000e+0 -1.00000000
vn -1.00000000 0.0000000e+0 0.0000000e+0
vn 0.0000000e+0 1.00000000 0.0000000e+0
vn 0.0000000e+0 1.00000000 0.0000000e+0
vn 0.0000000e+0 1.00000000 0.0000000e+0
vn 0.0000000e+0 1.00000000 0.0000000e+0
vn 0.0000000e+0 1.00000000 0.0000000e+0
vn 0.0000000e+0 1.00000000 0.0000000e+0
vn 0.0000000e+0 1.00000000 0.0000000e+0
vn 0.0000000e+0 1.00000000 0.0000000e+0
g HelicopterScrew_B_default
usemtl default
s 1
f 2/3/5 8/6/23 7/7/21 3/4/9
f 4/14/11 6/11/17 5/10/14 1/13/2
s 2
f 1/9/3 5/10/15 8/6/24 2/5/6
f 3/8/8 7/7/20 6/11/18 4/12/12
f 10/18/27 11/2/29 12/1/30 9/17/25
s 3
f 2/15/4 3/16/7 4/14/10 1/13/1
f 6/11/16 7/7/19 8/6/22 5/10/13
f 9/17/26 13/19/31 14/20/32 10/18/28
o Helicopter_B
#70 vertices, 68 faces
v -23.17580000 31.25820000 15.01700000
v -29.64210000 54.42430000 7.05130000
v -72.77940000 31.25820000 3.39100000
v 107.43690000 71.63260000 0.73870000
v 107.43690000 71.63260000 -0.73870000
v 99.62530000 71.63950000 -0.74260000
v 99.62530000 71.63950000 0.74260000
v 85.50410000 52.28990000 2.92450000
v 85.50410000 52.28990000 -2.92450000
v 101.89110000 49.78000000 2.25800000
v 101.89110000 49.78000000 -2.25800000
v 17.98610000 53.60740000 6.45100000
v 24.80990000 38.00600000 6.75850000
v -72.77940000 31.25820000 -3.39100000
v -29.64210000 54.42430000 -7.05130000
v -23.17580000 31.25820000 -15.02500000
v 17.98610000 53.60740000 -6.45100000
v -69.45530000 24.60500000 -2.39050000
v -69.45530000 24.60500000 2.39050000
v -23.17580000 22.44400000 -9.00760000
v -23.17580000 22.44400000 9.00760000
v -8.62970000 54.24640000 1.61770000
v -6.26750000 54.24640000 1.61770000
v -6.26750000 64.48260000 1.61770000
v -8.62970000 64.48260000 1.61770000
v -6.26750000 54.24640000 -0.74450000
v -6.26750000 64.48260000 -0.74450000
v -8.62970000 54.24640000 -0.74450000
v -8.62970000 64.48260000 -0.74450000
v 24.80990000 38.00600000 -6.75850000
v 15.87410000 31.25820000 11.23970000
v 15.87410000 31.25820000 -11.23970000
v 13.64880000 22.44400000 6.18410000
v 13.64880000 22.44400000 -6.18410000
v -21.54690000 22.76070000 33.97360000
v -2.09940000 22.76070000 33.97360000
v 8.0300000e-2 30.21680000 33.97360000
v -21.54690000 30.21680000 33.97360000
v -21.54690000 22.76070000 -33.97360000
v -21.54690000 30.21680000 -33.97360000
v 8.0300000e-2 30.21680000 -33.97360000
v -2.09940000 22.76070000 -33.97360000
v -2.92000000 24.68040000 21.62480000
v -2.92000000 29.49660000 18.86500000
v -27.22790000 29.49660000 18.86500000
v -27.22790000 24.68040000 21.62480000
v -2.92000000 24.69840000 16.07400000
v -27.22790000 24.69840000 16.07400000
v -33.02120000 26.29180000 18.85460000
v -2.92000000 24.68040000 31.07880000
v -2.92000000 29.49660000 28.31910000
v -27.22790000 29.49660000 28.31910000
v -27.22790000 24.68040000 31.07880000
v -2.92000000 24.69840000 25.52800000
v -27.22790000 24.69840000 25.52800000
v -33.02120000 26.29180000 28.30860000
v -2.92000000 24.68040000 -21.62480000
v -27.22790000 24.68040000 -21.62480000
v -27.22790000 29.49660000 -18.86500000
v -2.92000000 29.49660000 -18.86500000
v -27.22790000 24.69840000 -16.07400000
v -2.92000000 24.69840000 -16.07400000
v -33.02120000 26.29180000 -18.85460000
v -2.92000000 24.68040000 -31.07880000
v -27.22790000 24.68040000 -31.07880000
v -27.22790000 29.49660000 -28.31910000
v -2.92000000 29.49660000 -28.31910000
v -27.22790000 24.69840000 -25.52800000
v -2.92000000 24.69840000 -25.52800000
v -33.02120000 26.29180000 -28.30860000
vt 3.3700000e-2 0.27980000
vt 3.3700000e-2 0.42830000
vt 4.4900000e-2 0.78230000
vt 4.4900000e-2 0.80560000
vt 4.8500000e-2 7.4300000e-2
vt 4.8800000e-2 9.8100000e-2
vt 6.8000000e-2 0.27980000
vt 6.8000000e-2 0.42830000
vt 7.5100000e-2 0.74200000
vt 7.5100000e-2 0.84590000
vt 8.1200000e-2 0.77740000
vt 8.1200000e-2 0.81050000
vt 0.10230000 0.27980000
vt 0.10230000 0.42830000
vt 0.13650000 0.27980000
vt 0.13650000 0.42830000
vt 0.17080000 0.27980000
vt 0.17080000 0.42830000
vt 0.20370000 0.34680000
vt 0.20380000 0.31660000
vt 0.20390000 0.28640000
vt 0.23630000 0.36200000
vt 0.23640000 0.33180000
vt 0.23650000 0.30160000
vt 0.23660000 0.27140000
vt 0.25440000 0.60120000
vt 0.25440000 0.98680000
vt 0.26370000 0.50470000
vt 0.27330000 0.38250000
vt 0.27880000 3.7500000e-2
vt 0.28020000 0.12730000
vt 0.28410000 0.54270000
vt 0.28810000 0.64020000
vt 0.28810000 0.94780000
vt 0.31990000 0.75960000
vt 0.31990000 0.82840000
vt 0.35440000 0.64090000
vt 0.35440000 0.94700000
vt 0.39120000 0.60230000
vt 0.41980000 0.61950000
vt 0.42720000 0.43520000
vt 0.43240000 0.44490000
vt 0.43630000 0.43460000
vt 0.44010000 0.37900000
vt 0.46250000 4.8600000e-2
vt 0.46350000 0.11030000
vt 0.46810000 0.36270000
vt 0.46820000 0.33250000
vt 0.46830000 0.27210000
vt 0.46830000 0.30230000
vt 0.48640000 0.46520000
vt 0.49030000 0.45500000
vt 0.49440000 0.31750000
vt 0.49580000 0.47080000
vt 0.50740000 2.2700000e-2
vt 0.50920000 0.13470000
vt 0.54550000 0.65080000
vt 0.54550000 0.93710000
vt 0.55220000 0.76250000
vt 0.55220000 0.82540000
vt 0.56360000 4.4100000e-2
vt 0.56460000 0.11150000
vt 0.59040000 0.68870000
vt 0.59040000 0.89920000
vt 0.59080000 0.68890000
vt 0.59080000 0.89900000
vt 0.64820000 0.55790000
vt 0.65250000 0.59240000
vt 0.65880000 0.47100000
vt 0.68040000 0.57170000
vt 0.68310000 0.35430000
vt 0.69150000 0.44140000
vt 0.69210000 0.47500000
vt 0.75200000 0.69610000
vt 0.77340000 0.65460000
vt 0.77780000 0.47810000
vt 0.80070000 0.27170000
vt 0.80410000 0.43790000
vt 0.82540000 0.41390000
vt 0.83070000 0.37950000
vt 0.83330000 0.50110000
vt 0.85390000 0.61840000
vt 0.85790000 0.40110000
vt 0.86500000 0.53160000
vt 0.86670000 0.49800000
vt 0.88150000 0.77970000
vt 0.88150000 0.80820000
vt 0.93340000 0.27900000
vt 0.95250000 6.0200000e-2
vt 0.95250000 0.49760000
vt 0.95280000 8.2800000e-2
vt 0.95350000 0.32100000
vt 0.96210000 0.77320000
vt 0.96210000 0.81470000
vt 0.96890000 0.70470000
vt 0.97740000 0.53860000
vn -0.22024516 0.26164082 0.93970003
vn 9.4334523e-2 0.20004615 0.97523461
vn -0.17757040 -0.43763625 0.88144385
vn 1.7549325e-2 0.32949268 0.94399502
vn -0.99692604 -2.7145403e-2 7.3495499e-2
vn 3.1731045e-3 0.99869507 5.0971535e-2
vn -0.22024516 0.26164082 0.93970003
vn -0.47312303 0.88099637 0.0000000e+0
vn 1.7149081e-2 0.99985294 0.0000000e+0
vn 1.7549325e-2 0.32949268 0.94399502
vn -0.22024516 0.26164082 0.93970003
vn -0.47312303 0.88099637 0.0000000e+0
vn -0.89456161 -0.44694466 0.0000000e+0
vn -0.17757040 -0.43763625 0.88144385
vn 8.8330141e-4 0.99999961 0.0000000e+0
vn 3.5179334e-2 7.2744297e-2 0.99672999
vn 0.96927379 -0.24598439 0.0000000e+0
vn 8.8330141e-4 0.99999961 0.0000000e+0
vn 0.96927379 -0.24598439 0.0000000e+0
vn 3.5179334e-2 7.2744297e-2 -0.99672999
vn 8.8330141e-4 0.99999961 0.0000000e+0
vn -0.80776666 0.58950235 0.0000000e+0
vn 3.5179334e-2 7.2744297e-2 -0.99672999
vn 8.8330141e-4 0.99999961 0.0000000e+0
vn -0.80776666 0.58950235 0.0000000e+0
vn 3.5179334e-2 7.2744297e-2 0.99672999
vn -0.80776666 0.58950235 0.0000000e+0
vn 3.5179334e-2 7.2744297e-2 0.99672999
vn 5.1987871e-2 4.6852536e-2 0.99754804
vn 1.9509601e-2 0.99980967 0.0000000e+0
vn -0.80776666 0.58950235 0.0000000e+0
vn 3.5179334e-2 7.2744297e-2 -0.99672999
vn 1.9509601e-2 0.99980967 0.0000000e+0
vn 5.1987871e-2 4.6852536e-2 -0.99754804
vn 3.5179334e-2 7.2744297e-2 0.99672999
vn 0.96927379 -0.24598439 0.0000000e+0
vn 5.1987871e-2 4.6852536e-2 0.99754804
vn 0.15099664 -0.98853428 0.0000000e+0
vn 0.96927379 -0.24598439 0.0000000e+0
vn 3.5179334e-2 7.2744297e-2 -0.99672999
vn 0.15099664 -0.98853428 0.0000000e+0
vn 5.1987871e-2 4.6852536e-2 -0.99754804
vn 5.1987871e-2 4.6852536e-2 0.99754804
vn 1.7149081e-2 0.99985294 0.0000000e+0
vn 0.33873822 0.16641080 0.92604744
vn 1.9509601e-2 0.99980967 0.0000000e+0
vn 9.4334523e-2 0.20004615 0.97523461
vn 1.7549325e-2 0.32949268 0.94399502
vn 5.1987871e-2 4.6852536e-2 0.99754804
vn 0.15099664 -0.98853428 0.0000000e+0
vn 0.33873822 0.16641080 0.92604744
vn 0.60262310 -0.79802594 0.0000000e+0
vn -0.47312303 0.88099637 0.0000000e+0
vn -0.22037307 0.26189493 -0.93959925
vn -0.89456161 -0.44694466 0.0000000e+0
vn -0.17761511 -0.43801280 -0.88124779
vn -0.47312303 0.88099637 0.0000000e+0
vn -0.22037307 0.26189493 -0.93959925
vn 1.7149081e-2 0.99985294 0.0000000e+0
vn 1.7553047e-2 0.32978460 -0.94389301
vn -0.22037307 0.26189493 -0.93959925
vn -0.17761511 -0.43801280 -0.88124779
vn 1.7553047e-2 0.32978460 -0.94389301
vn 9.4532889e-2 0.20002425 -0.97521989
vn -0.99692401 -2.7186187e-2 -7.3508063e-2
vn 3.1805919e-3 0.99869441 -5.0983830e-2
vn 1.7149081e-2 0.99985294 0.0000000e+0
vn 1.9509601e-2 0.99980967 0.0000000e+0
vn 5.1987871e-2 4.6852536e-2 -0.99754804
vn 1.7553047e-2 0.32978460 -0.94389301
vn 9.4532889e-2 0.20002425 -0.97521989
vn 0.33873822 0.16641080 -0.92604744
vn -0.89456161 -0.44694466 0.0000000e+0
vn -4.6643718e-2 -0.99891159 0.0000000e+0
vn -0.17761511 -0.43801280 -0.88124779
vn -0.89456161 -0.44694466 0.0000000e+0
vn -4.6643718e-2 -0.99891159 0.0000000e+0
vn -0.17757040 -0.43763625 0.88144385
vn -4.6643718e-2 -0.99891159 0.0000000e+0
vn 0.0000000e+0 -1.00000000 0.0000000e+0
vn -0.17761511 -0.43801280 -0.88124779
vn -0.99692401 -2.7186187e-2 -7.3508063e-2
vn 6.1058250e-4 -0.99992577 -1.2168854e-2
vn -4.6643718e-2 -0.99891159 0.0000000e+0
vn 0.0000000e+0 -1.00000000 0.0000000e+0
vn -0.17757040 -0.43763625 0.88144385
vn -0.99692604 -2.7145403e-2 7.3495499e-2
vn 6.1058250e-4 -0.99992577 1.2168854e-2
vn 0.0000000e+0 0.0000000e+0 1.00000000
vn -1.00000000 0.0000000e+0 0.0000000e+0
vn 0.0000000e+0 0.0000000e+0 1.00000000
vn 1.00000000 0.0000000e+0 0.0000000e+0
vn 0.0000000e+0 0.0000000e+0 1.00000000
vn 1.00000000 0.0000000e+0 0.0000000e+0
vn 0.0000000e+0 0.0000000e+0 1.00000000
vn -1.00000000 0.0000000e+0 0.0000000e+0
vn 1.00000000 0.0000000e+0 0.0000000e+0
vn 0.0000000e+0 0.0000000e+0 -1.00000000
vn 1.00000000 0.0000000e+0 0.0000000e+0
vn 0.0000000e+0 0.0000000e+0 -1.00000000
vn 0.0000000e+0 0.0000000e+0 -1.00000000
vn -1.00000000 0.0000000e+0 0.0000000e+0
vn 0.0000000e+0 0.0000000e+0 -1.00000000
vn -1.00000000 0.0000000e+0 0.0000000e+0
vn 0.15099664 -0.98853428 0.0000000e+0
vn 5.1987871e-2 4.6852536e-2 -0.99754804
vn 0.60262310 -0.79802594 0.0000000e+0
vn 0.33873822 0.16641080 -0.92604744
vn 0.33873822 0.16641080 0.92604744
vn 0.96957694 -0.24478677 0.0000000e+0
vn 9.4334523e-2 0.20004615 0.97523461
vn 0.60262310 -0.79802594 0.0000000e+0
vn 3.1731045e-3 0.99869507 5.0971535e-2
vn 0.79166555 -0.36627526 0.48898679
vn 0.96957694 -0.24478677 0.0000000e+0
vn 0.60262310 -0.79802594 0.0000000e+0
vn 9.4532889e-2 0.20002425 -0.97521989
vn 0.33873822 0.16641080 -0.92604744
vn 3.1805919e-3 0.99869441 -5.0983830e-2
vn 0.79166555 -0.36627526 -0.48898679
vn 0.96957694 -0.24478677 0.0000000e+0
vn 0.0000000e+0 -1.00000000 0.0000000e+0
vn 0.79166555 -0.36627526 0.48898679
vn 6.1058250e-4 -0.99992577 1.2168854e-2
vn 0.96957694 -0.24478677 0.0000000e+0
vn 0.0000000e+0 -1.00000000 0.0000000e+0
vn 0.79166555 -0.36627526 -0.48898679
vn 6.1058250e-4 -0.99992577 -1.2168854e-2
vn 0.0000000e+0 0.0000000e+0 1.00000000
vn -0.99692604 -2.7145403e-2 7.3495499e-2
vn 6.1058250e-4 -0.99992577 1.2168854e-2
vn 0.0000000e+0 0.0000000e+0 1.00000000
vn 0.79166555 -0.36627526 0.48898679
vn 6.1058250e-4 -0.99992577 1.2168854e-2
vn 0.0000000e+0 0.0000000e+0 1.00000000
vn 3.1731045e-3 0.99869507 5.0971535e-2
vn 0.79166555 -0.36627526 0.48898679
vn 0.0000000e+0 0.0000000e+0 1.00000000
vn -0.99692604 -2.7145403e-2 7.3495499e-2
vn 3.1731045e-3 0.99869507 5.0971535e-2
vn 0.0000000e+0 0.0000000e+0 -1.00000000
vn -0.99692401 -2.7186187e-2 -7.3508063e-2
vn 6.1058250e-4 -0.99992577 -1.2168854e-2
vn 0.0000000e+0 0.0000000e+0 -1.00000000
vn -0.99692401 -2.7186187e-2 -7.3508063e-2
vn 3.1805919e-3 0.99869441 -5.0983830e-2
vn 0.0000000e+0 0.0000000e+0 -1.00000000
vn 3.1805919e-3 0.99869441 -5.0983830e-2
vn 0.79166555 -0.36627526 -0.48898679
vn 0.0000000e+0 0.0000000e+0 -1.00000000
vn 0.79166555 -0.36627526 -0.48898679
vn 6.1058250e-4 -0.99992577 -1.2168854e-2
vn 0.0000000e+0 0.49718235 0.86764607
vn 0.0000000e+0 -0.99999474 -3.2427588e-3
vn 1.00000000 0.0000000e+0 0.0000000e+0
vn 0.0000000e+0 0.49718235 0.86764607
vn 0.0000000e+0 0.50280205 -0.86440158
vn 1.00000000 0.0000000e+0 0.0000000e+0
vn 0.0000000e+0 0.49718235 0.86764607
vn 0.0000000e+0 0.50280205 -0.86440158
vn -0.26658422 0.48460647 -0.83312030
vn -0.26658472 0.47919006 0.83624725
vn 0.0000000e+0 0.49718235 0.86764607
vn 0.0000000e+0 -0.99999474 -3.2427588e-3
vn -0.26658472 0.47919006 0.83624725
vn -0.26658703 -0.96380578 -3.1254061e-3
vn 0.0000000e+0 0.50280205 -0.86440158
vn 0.0000000e+0 -0.99999474 -3.2427588e-3
vn 1.00000000 0.0000000e+0 0.0000000e+0
vn 0.0000000e+0 0.50280205 -0.86440158
vn 0.0000000e+0 -0.99999474 -3.2427588e-3
vn -0.26658422 0.48460647 -0.83312030
vn -0.26658703 -0.96380578 -3.1254061e-3
vn -0.26658422 0.48460647 -0.83312030
vn -0.26658472 0.47919006 0.83624725
vn -0.26658703 -0.96380578 -3.1254061e-3
vn 0.0000000e+0 0.49716879 0.86765385
vn 0.0000000e+0 -0.99999474 -3.2427588e-3
vn 1.00000000 0.0000000e+0 0.0000000e+0
vn 0.0000000e+0 0.49716879 0.86765385
vn 0.0000000e+0 0.50281551 -0.86439375
vn 1.00000000 0.0000000e+0 0.0000000e+0
vn 0.0000000e+0 0.49716879 0.86765385
vn 0.0000000e+0 0.50281551 -0.86439375
vn -0.26657754 0.48462037 -0.83311435
vn -0.26659143 0.47917607 0.83625314
vn 0.0000000e+0 0.49716879 0.86765385
vn 0.0000000e+0 -0.99999474 -3.2427588e-3
vn -0.26659143 0.47917607 0.83625314
vn -0.26658703 -0.96380578 -3.1254061e-3
vn 0.0000000e+0 0.50281551 -0.86439375
vn 0.0000000e+0 -0.99999474 -3.2427588e-3
vn 1.00000000 0.0000000e+0 0.0000000e+0
vn 0.0000000e+0 0.50281551 -0.86439375
vn 0.0000000e+0 -0.99999474 -3.2427588e-3
vn -0.26657754 0.48462037 -0.83311435
vn -0.26658703 -0.96380578 -3.1254061e-3
vn -0.26657754 0.48462037 -0.83311435
vn -0.26659143 0.47917607 0.83625314
vn -0.26658703 -0.96380578 -3.1254061e-3
vn 0.0000000e+0 0.49718235 -0.86764607
vn 0.0000000e+0 -0.99999474 3.2427588e-3
vn 1.00000000 0.0000000e+0 0.0000000e+0
vn 0.0000000e+0 0.49718235 -0.86764607
vn 0.0000000e+0 -0.99999474 3.2427588e-3
vn -0.26658472 0.47919006 -0.83624725
vn -0.26658703 -0.96380578 3.1254061e-3
vn 0.0000000e+0 0.49718235 -0.86764607
vn 0.0000000e+0 0.50280205 0.86440158
vn -0.26658422 0.48460647 0.83312030
vn -0.26658472 0.47919006 -0.83624725
vn 0.0000000e+0 0.49718235 -0.86764607
vn 0.0000000e+0 0.50280205 0.86440158
vn 1.00000000 0.0000000e+0 0.0000000e+0
vn 0.0000000e+0 0.50280205 0.86440158
vn 0.0000000e+0 -0.99999474 3.2427588e-3
vn -0.26658422 0.48460647 0.83312030
vn -0.26658703 -0.96380578 3.1254061e-3
vn 0.0000000e+0 0.50280205 0.86440158
vn 0.0000000e+0 -0.99999474 3.2427588e-3
vn 1.00000000 0.0000000e+0 0.0000000e+0
vn -0.26658422 0.48460647 0.83312030
vn -0.26658472 0.47919006 -0.83624725
vn -0.26658703 -0.96380578 3.1254061e-3
vn 0.0000000e+0 0.49716879 -0.86765385
vn 0.0000000e+0 -0.99999474 3.2427588e-3
vn 1.00000000 0.0000000e+0 0.0000000e+0
vn 0.0000000e+0 0.49716879 -0.86765385
vn 0.0000000e+0 -0.99999474 3.2427588e-3
vn -0.26659143 0.47917607 -0.83625314
vn -0.26658703 -0.96380578 3.1254061e-3
vn 0.0000000e+0 0.49716879 -0.86765385
vn 0.0000000e+0 0.50281551 0.86439375
vn -0.26657754 0.48462037 0.83311435
vn -0.26659143 0.47917607 -0.83625314
vn 0.0000000e+0 0.49716879 -0.86765385
vn 0.0000000e+0 0.50281551 0.86439375
vn 1.00000000 0.0000000e+0 0.0000000e+0
vn 0.0000000e+0 0.50281551 0.86439375
vn 0.0000000e+0 -0.99999474 3.2427588e-3
vn -0.26657754 0.48462037 0.83311435
vn -0.26658703 -0.96380578 3.1254061e-3
vn 0.0000000e+0 0.50281551 0.86439375
vn 0.0000000e+0 -0.99999474 3.2427588e-3
vn 1.00000000 0.0000000e+0 0.0000000e+0
vn -0.26657754 0.48462037 0.83311435
vn -0.26659143 0.47917607 -0.83625314
vn -0.26658703 -0.96380578 3.1254061e-3
g Helicopter_B_default
usemtl default
s 1
f 15/57/34 45/77/143 26/79/79
f 16/55/39 17/31/43 15/53/33
f 21/61/58 22/48/60 24/49/67 18/64/48
f 25/114/74 44/86/138 31/80/101 23/107/66
f 26/79/76 31/80/99 29/56/91 16/55/41
f 27/82/84 45/76/144 46/75/148 44/81/139
f 28/32/87 32/24/105 33/23/108 17/31/45
f 29/56/90 30/54/93 28/32/86
f 31/80/103 46/78/149 30/58/96
f 34/50/112 48/65/158 47/66/154 35/51/117
f 35/116/119 49/104/162 52/105/171 15/110/37
f 37/37/123 38/38/125 39/36/127 36/35/121
f 37/21/124 40/27/129 41/28/131 38/22/126
f 39/36/128 43/34/136 42/33/134 36/35/122
f 40/27/130 42/33/133 43/34/135 41/28/132
f 45/112/146 51/103/169 50/100/165 47/108/155
f 54/93/176 55/90/179 56/87/182 53/89/173
f 58/68/188 59/43/191 60/44/195 57/70/185
f 60/44/198 63/41/208 62/45/205
f 67/44/220 69/45/227 68/69/224 64/70/210
f 69/42/228 70/39/230 66/43/217
f 74/68/246 76/73/253 71/70/235
f 75/45/250 77/41/256 72/44/239
f 81/68/270 83/73/277 78/70/259
f 82/45/274 84/41/280 79/44/263
s 2
f 15/57/36 26/79/80 16/55/42
f 16/55/40 29/56/89 28/32/85 17/31/44
f 17/31/46 33/29/110 35/46/118 15/53/35
f 18/74/49 24/60/68 25/59/71 19/71/51
f 20/62/54 23/52/63 22/48/59 21/61/57
f 26/79/77 45/77/141 27/83/83
f 29/56/92 31/80/102 30/58/95
f 30/96/97 54/93/177 53/92/174 34/98/114
f 44/84/140 46/78/150 31/80/104
f 45/76/142 47/66/153 48/65/157 46/75/147
f 50/99/164 51/103/167 52/105/170 49/101/161
f 60/44/196 62/45/203 61/69/200 57/70/186
f 62/42/204 63/39/206 59/43/193
f 65/68/212 66/43/215 67/44/219 64/70/209
f 67/44/222 70/41/232 69/45/229
f 71/70/234 76/69/252 75/45/248 72/44/237
f 72/44/238 77/40/255 73/43/243
f 78/70/258 83/69/276 82/45/272 79/44/261
f 80/43/266 84/39/278 82/42/273
s 3
f 15/110/38 52/105/172 51/103/168 45/112/145
f 19/71/50 20/62/53 21/63/56 18/72/47
f 23/107/65 31/80/100 26/79/78 22/106/62
f 24/111/70 27/82/82 44/81/137 25/109/73
f 32/25/106 34/50/111 35/51/116 33/26/109
f 34/98/115 53/92/175 56/91/184 48/97/160
f 46/95/151 55/90/180 54/93/178 30/96/98
f 47/115/156 50/102/166 49/104/163 35/116/120
f 58/68/189 61/67/199 62/42/202 59/43/192
f 59/43/194 63/40/207 60/44/197
f 65/68/213 68/67/223 69/42/226 66/43/216
f 66/43/218 70/40/231 67/44/221
f 72/44/236 73/43/240 74/68/244 71/70/233
f 73/43/242 77/39/254 75/42/249
f 79/44/262 84/40/279 80/43/267
f 80/43/265 82/42/271 83/67/275 81/68/269
s 4
f 19/71/52 25/59/72 23/52/64 20/62/55
f 22/106/61 26/79/75 27/85/81 24/113/69
f 30/54/94 34/47/113 32/30/107 28/32/88
f 48/94/159 56/88/183 55/90/181 46/95/152
f 57/70/187 61/73/201 58/68/190
f 64/70/211 68/73/225 65/68/214
f 73/43/241 75/42/247 76/67/251 74/68/245
f 79/44/260 80/43/264 81/68/268 78/70/257
