# Exported from Wings 3D 2.1.5
mtllib Tank.mtl
o TankTower_B
#20 vertices, 15 faces
v -5.25290000 26.08410000 27.57450000
v -5.25290000 26.08410000 -27.57450000
v 37.47420000 26.08410000 -27.57450000
v 37.47420000 26.08410000 27.57450000
v 41.48720000 41.42650000 27.57450000
v -5.25290000 41.42650000 27.57450000
v -21.10610000 28.58930000 -18.23760000
v -21.10610000 28.58930000 18.23760000
v -21.10610000 35.17670000 18.23760000
v -21.10610000 35.17670000 -18.23760000
v -5.25290000 41.42650000 -27.57450000
v 41.48720000 41.42650000 -27.57450000
v -63.85940000 37.43470000 4.24670000
v -63.85940000 37.43470000 -4.24670000
v -63.85950000 31.93380000 -4.24670000
v -63.85950000 31.93380000 4.24670000
v -9.52300000 29.68110000 -8.59840000
v -9.52300000 29.68110000 8.59840000
v -9.52290000 39.68710000 8.59840000
v -9.52290000 39.68710000 -8.59840000
vt 0.25390000 0.10700000
vt 0.25470000 0.32660000
vt 0.27230000 8.4100000e-2
vt 0.27600000 0.10600000
vt 0.29500000 0.32480000
vt 0.30600000 7.8500000e-2
vt 0.30970000 0.10030000
vt 0.33090000 9.4000000e-2
vt 0.36230000 8.0400000e-2
vt 0.36320000 0.31330000
vt 0.40190000 0.30190000
vt 0.46540000 0.27440000
vt 0.56310000 0.58230000
vt 0.56310000 0.78860000
vt 0.57520000 0.87740000
vt 0.60700000 0.87740000
vt 0.63720000 0.28000000
vt 0.63720000 0.48630000
vt 0.63720000 0.56290000
vt 0.63720000 0.78860000
vt 0.63720000 0.98020000
vt 0.68230000 0.87090000
vt 0.68230000 0.90270000
vt 0.85840000 0.87090000
vt 0.85840000 0.90270000
vt 0.90350000 0.28000000
vt 0.90350000 0.48630000
vt 0.90350000 0.56290000
vt 0.90350000 0.78860000
vt 0.90350000 0.98020000
vt 0.93370000 0.87740000
vt 0.96550000 0.87740000
vt 0.97760000 0.58230000
vt 0.97760000 0.78860000
vn 0.0000000e+0 -1.00000000 0.0000000e+0
vn 0.0000000e+0 0.0000000e+0 1.00000000
vn -0.15608799 -0.98774315 0.0000000e+0
vn -0.50748395 0.0000000e+0 0.86166121
vn 0.0000000e+0 -1.00000000 0.0000000e+0
vn 0.0000000e+0 0.0000000e+0 -1.00000000
vn -0.15608799 -0.98774315 0.0000000e+0
vn -0.50748395 0.0000000e+0 -0.86166121
vn 0.0000000e+0 -1.00000000 0.0000000e+0
vn 0.0000000e+0 0.0000000e+0 -1.00000000
vn 0.96745328 -0.25304972 0.0000000e+0
vn 0.0000000e+0 -1.00000000 0.0000000e+0
vn 0.0000000e+0 0.0000000e+0 1.00000000
vn 0.96745328 -0.25304972 0.0000000e+0
vn 0.0000000e+0 0.0000000e+0 1.00000000
vn 0.96745328 -0.25304972 0.0000000e+0
vn 0.0000000e+0 1.00000000 0.0000000e+0
vn 0.0000000e+0 0.0000000e+0 1.00000000
vn 0.0000000e+0 1.00000000 0.0000000e+0
vn -0.50748395 0.0000000e+0 0.86166121
vn -0.36675819 0.93031631 0.0000000e+0
vn -1.00000000 0.0000000e+0 0.0000000e+0
vn -0.15608799 -0.98774315 0.0000000e+0
vn -0.50748395 0.0000000e+0 -0.86166121
vn -1.00000000 0.0000000e+0 0.0000000e+0
vn -0.15608799 -0.98774315 0.0000000e+0
vn -0.50748395 0.0000000e+0 0.86166121
vn -1.00000000 0.0000000e+0 0.0000000e+0
vn -0.50748395 0.0000000e+0 0.86166121
vn -0.36675819 0.93031631 0.0000000e+0
vn -1.00000000 0.0000000e+0 0.0000000e+0
vn -0.36675819 0.93031631 0.0000000e+0
vn -0.50748395 0.0000000e+0 -0.86166121
vn 0.0000000e+0 0.0000000e+0 -1.00000000
vn 0.0000000e+0 1.00000000 0.0000000e+0
vn -0.36675819 0.93031631 0.0000000e+0
vn -0.50748395 0.0000000e+0 -0.86166121
vn 0.0000000e+0 0.0000000e+0 -1.00000000
vn 0.96745328 -0.25304972 0.0000000e+0
vn 0.0000000e+0 1.00000000 0.0000000e+0
vn -1.00000000 1.8178843e-5 0.0000000e+0
vn -7.9832354e-2 1.0296365e-6 0.99680830
vn -4.1417230e-2 0.99914194 0.0000000e+0
vn -1.00000000 1.8178843e-5 0.0000000e+0
vn -4.1417230e-2 0.99914194 0.0000000e+0
vn -7.9832354e-2 1.0296365e-6 -0.99680830
vn -1.00000000 1.8178843e-5 0.0000000e+0
vn -4.1422737e-2 -0.99914171 0.0000000e+0
vn -7.9832354e-2 1.0296365e-6 -0.99680830
vn -1.00000000 1.8178843e-5 0.0000000e+0
vn -4.1422737e-2 -0.99914171 0.0000000e+0
vn -7.9832354e-2 1.0296365e-6 0.99680830
vn -4.1422737e-2 -0.99914171 0.0000000e+0
vn -7.9832354e-2 1.0296365e-6 -0.99680830
vn -4.1422737e-2 -0.99914171 0.0000000e+0
vn -7.9832354e-2 1.0296365e-6 0.99680830
vn -7.9832354e-2 1.0296365e-6 0.99680830
vn -4.1417230e-2 0.99914194 0.0000000e+0
vn -4.1417230e-2 0.99914194 0.0000000e+0
vn -7.9832354e-2 1.0296365e-6 -0.99680830
g TankTower_B_default
usemtl default
s 1
f 3/27/11 12/28/39 5/19/16 4/18/14
f 6/20/20 9/16/29 8/15/27 1/14/4
f 7/32/24 10/31/33 11/29/37 2/34/8
f 14/4/44 15/3/47 16/6/50 13/7/41
s 2
f 1/21/3 8/23/26 7/25/23 2/30/7
f 2/34/6 11/29/34 12/28/38 3/33/10
f 4/13/13 5/19/15 6/20/18 1/14/2
f 6/20/21 11/29/36 10/24/32 9/22/30
f 13/7/43 19/10/58 20/5/59 14/4/45
f 15/9/48 17/12/53 18/11/55 16/8/51
s 3
f 2/26/5 3/27/9 4/18/12 1/17/1
f 5/19/17 12/28/40 11/29/35 6/20/19
f 8/23/25 9/22/28 10/24/31 7/25/22
f 14/4/46 20/5/60 17/2/54 15/1/49
f 16/8/52 18/11/56 19/10/57 13/7/42
o Tank_B
#48 vertices, 46 faces
v 54.78570000 26.08410000 39.37010000
v 54.78570000 26.08410000 -39.37010000
v -45.76220000 26.08410000 -39.37010000
v -45.76220000 26.08410000 39.37010000
v -59.05510000 7.40500000 39.37010000
v 60.10930000 7.40500000 39.37010000
v 60.10930000 7.40500000 -39.37010000
v -59.05510000 7.40500000 -39.37010000
v 53.90860000 1.5000000e-3 -36.39880000
v 53.90860000 1.5000000e-3 -18.95110000
v -52.47930000 1.5000000e-3 -18.95110000
v -52.47930000 1.5000000e-3 -36.39880000
v -52.58410000 15.58430000 -36.39880000
v -52.58410000 15.58430000 -18.95110000
v 53.98390000 15.58430000 -18.95110000
v 53.98390000 15.58430000 -36.39880000
v -57.60290000 13.72390000 -36.39880000
v -59.95880000 7.79290000 -36.39880000
v -59.95880000 7.79290000 -18.95110000
v -57.60290000 13.72390000 -18.95110000
v -57.60290000 1.86190000 -36.39880000
v -57.60290000 1.86190000 -18.95110000
v 59.03220000 13.72390000 -36.39880000
v 59.03220000 13.72390000 -18.95110000
v 61.38810000 7.79290000 -18.95110000
v 61.38810000 7.79290000 -36.39880000
v 59.03220000 1.86190000 -36.39880000
v 59.03220000 1.86190000 -18.95110000
v 53.90860000 1.5000000e-3 36.39880000
v -52.47930000 1.5000000e-3 36.39880000
v -52.47930000 1.5000000e-3 18.95110000
v 53.90860000 1.5000000e-3 18.95110000
v -52.58410000 15.58430000 36.39880000
v 53.98390000 15.58430000 36.39880000
v 53.98390000 15.58430000 18.95110000
v -52.58410000 15.58430000 18.95110000
v -57.60290000 13.72390000 36.39880000
v -57.60290000 13.72390000 18.95110000
v -59.95880000 7.79290000 18.95110000
v -59.95880000 7.79290000 36.39880000
v -57.60290000 1.86190000 36.39880000
v -57.60290000 1.86190000 18.95110000
v 59.03220000 13.72390000 36.39880000
v 61.38810000 7.79290000 36.39880000
v 61.38810000 7.79290000 18.95110000
v 59.03220000 13.72390000 18.95110000
v 59.03220000 1.86190000 36.39880000
v 59.03220000 1.86190000 18.95110000
vt 2.2500000e-2 0.39000000
vt 2.2500000e-2 0.91930000
vt 3.2300000e-2 3.3100000e-2
vt 3.2300000e-2 0.32570000
vt 0.10550000 0.34720000
vt 0.10550000 0.44900000
vt 0.10550000 0.89560000
vt 0.10550000 0.98190000
vt 0.22570000 3.3100000e-2
vt 0.22570000 0.32570000
vt 0.42790000 7.8800000e-2
vt 0.42790000 0.14210000
vt 0.44770000 7.8800000e-2
vt 0.44770000 0.14210000
vt 0.45520000 0.34720000
vt 0.45520000 0.44900000
vt 0.45520000 0.89560000
vt 0.45520000 0.98190000
vt 0.47080000 7.8800000e-2
vt 0.47080000 0.14210000
vt 0.48660000 5.0600000e-2
vt 0.48660000 0.17040000
vt 0.49400000 7.8800000e-2
vt 0.49400000 0.14210000
vt 0.49520000 2.9100000e-2
vt 0.49520000 7.2100000e-2
vt 0.49520000 0.14890000
vt 0.49520000 0.19190000
vt 0.51350000 7.8800000e-2
vt 0.51350000 0.14210000
vt 0.51380000 2.2300000e-2
vt 0.51380000 0.19870000
vt 0.51380000 0.26200000
vt 0.53820000 0.39000000
vt 0.53820000 0.91930000
vt 0.89970000 2.2300000e-2
vt 0.89970000 0.19870000
vt 0.89970000 0.26200000
vt 0.90010000 7.8800000e-2
vt 0.90010000 0.14210000
vt 0.91830000 2.9100000e-2
vt 0.91830000 7.2100000e-2
vt 0.91830000 0.14890000
vt 0.91830000 0.19190000
vt 0.91950000 7.8800000e-2
vt 0.91950000 0.14210000
vt 0.92690000 5.0600000e-2
vt 0.92690000 0.17040000
vt 0.94270000 7.8800000e-2
vt 0.94270000 0.14210000
vt 0.96580000 7.8800000e-2
vt 0.96580000 0.14210000
vt 0.98560000 7.8800000e-2
vt 0.98560000 0.14210000
vn 0.0000000e+0 1.00000000 0.0000000e+0
vn 0.0000000e+0 0.0000000e+0 1.00000000
vn 0.96170442 0.27408867 0.0000000e+0
vn 0.0000000e+0 1.00000000 0.0000000e+0
vn 0.96170442 0.27408867 0.0000000e+0
vn 0.0000000e+0 0.0000000e+0 -1.00000000
vn 0.0000000e+0 1.00000000 0.0000000e+0
vn -0.81474959 0.57981299 0.0000000e+0
vn 0.0000000e+0 0.0000000e+0 -1.00000000
vn 0.0000000e+0 1.00000000 0.0000000e+0
vn 0.0000000e+0 0.0000000e+0 1.00000000
vn -0.81474959 0.57981299 0.0000000e+0
vn 0.0000000e+0 0.0000000e+0 1.00000000
vn -0.81474959 0.57981299 0.0000000e+0
vn 0.0000000e+0 -1.00000000 0.0000000e+0
vn 0.0000000e+0 0.0000000e+0 1.00000000
vn 0.96170442 0.27408867 0.0000000e+0
vn 0.0000000e+0 -1.00000000 0.0000000e+0
vn 0.96170442 0.27408867 0.0000000e+0
vn 0.0000000e+0 -1.00000000 0.0000000e+0
vn 0.0000000e+0 0.0000000e+0 -1.00000000
vn -0.81474959 0.57981299 0.0000000e+0
vn 0.0000000e+0 -1.00000000 0.0000000e+0
vn 0.0000000e+0 0.0000000e+0 -1.00000000
vn 0.17327145 -0.98487411 0.0000000e+0
vn 0.0000000e+0 0.0000000e+0 -1.00000000
vn 0.17327145 -0.98487411 0.0000000e+0
vn 0.0000000e+0 0.0000000e+0 -1.00000000
vn 0.17327145 -0.98487411 0.0000000e+0
vn 0.0000000e+0 0.0000000e+0 1.00000000
vn 0.17327145 -0.98487411 0.0000000e+0
vn 0.0000000e+0 0.0000000e+0 1.00000000
vn -0.17327145 -0.98487411 0.0000000e+0
vn -0.17327145 -0.98487411 0.0000000e+0
vn 0.0000000e+0 0.0000000e+0 1.00000000
vn 0.0000000e+0 0.0000000e+0 1.00000000
vn -0.17327145 -0.98487411 0.0000000e+0
vn -0.17327145 -0.98487411 0.0000000e+0
vn 0.0000000e+0 0.0000000e+0 -1.00000000
vn 0.0000000e+0 0.0000000e+0 -1.00000000
vn -0.17656122 0.98428966 0.0000000e+0
vn 1.1196885e-15 0.0000000e+0 -1.00000000
vn -0.17656122 0.98428966 0.0000000e+0
vn 0.0000000e+0 0.0000000e+0 -1.00000000
vn 0.0000000e+0 0.0000000e+0 -1.00000000
vn -0.17656122 0.98428966 0.0000000e+0
vn -0.17656122 0.98428966 0.0000000e+0
vn 0.0000000e+0 0.0000000e+0 1.00000000
vn 0.0000000e+0 0.0000000e+0 1.00000000
vn -2.2393770e-15 0.0000000e+0 1.00000000
vn 0.17562322 0.98445746 0.0000000e+0
vn 0.0000000e+0 0.0000000e+0 1.00000000
vn 0.17562322 0.98445746 0.0000000e+0
vn 0.0000000e+0 0.0000000e+0 1.00000000
vn 1.1120235e-15 0.0000000e+0 1.00000000
vn 0.17562322 0.98445746 0.0000000e+0
vn 0.0000000e+0 0.0000000e+0 -1.00000000
vn -1.1120235e-15 0.0000000e+0 -1.00000000
vn 0.17562322 0.98445746 0.0000000e+0
vn 0.0000000e+0 0.0000000e+0 -1.00000000
vn -0.69888469 0.71523436 0.0000000e+0
vn 1.1196885e-15 0.0000000e+0 -1.00000000
vn -0.69888469 0.71523436 0.0000000e+0
vn -1.00000000 0.0000000e+0 0.0000000e+0
vn 1.1196885e-15 0.0000000e+0 -1.00000000
vn -1.00000000 0.0000000e+0 0.0000000e+0
vn 0.0000000e+0 0.0000000e+0 -1.00000000
vn -1.00000000 0.0000000e+0 0.0000000e+0
vn -1.00000000 0.0000000e+0 0.0000000e+0
vn 0.0000000e+0 0.0000000e+0 1.00000000
vn -2.2393770e-15 0.0000000e+0 1.00000000
vn -0.69888469 0.71523436 0.0000000e+0
vn -0.69888469 0.71523436 0.0000000e+0
vn -2.2393770e-15 0.0000000e+0 1.00000000
vn -0.69649099 -0.71756554 0.0000000e+0
vn -0.69649099 -0.71756554 0.0000000e+0
vn 0.0000000e+0 0.0000000e+0 -1.00000000
vn -0.69649099 -0.71756554 0.0000000e+0
vn -0.69649099 -0.71756554 0.0000000e+0
vn 0.0000000e+0 0.0000000e+0 1.00000000
vn 0.69820283 0.71589999 0.0000000e+0
vn -1.1120235e-15 0.0000000e+0 -1.00000000
vn 0.69820283 0.71589999 0.0000000e+0
vn 0.69820283 0.71589999 0.0000000e+0
vn 0.69820283 0.71589999 0.0000000e+0
vn 1.1120235e-15 0.0000000e+0 1.00000000
vn 1.00000000 0.0000000e+0 0.0000000e+0
vn 1.00000000 0.0000000e+0 0.0000000e+0
vn 0.0000000e+0 0.0000000e+0 1.00000000
vn 1.1120235e-15 0.0000000e+0 1.00000000
vn 1.00000000 0.0000000e+0 0.0000000e+0
vn -1.1120235e-15 0.0000000e+0 -1.00000000
vn 1.00000000 0.0000000e+0 0.0000000e+0
vn 0.0000000e+0 0.0000000e+0 -1.00000000
vn 0.69649099 -0.71756554 0.0000000e+0
vn 0.69649099 -0.71756554 0.0000000e+0
vn 0.0000000e+0 0.0000000e+0 -1.00000000
vn 0.69649099 -0.71756554 0.0000000e+0
vn 0.69649099 -0.71756554 0.0000000e+0
vn 0.0000000e+0 0.0000000e+0 1.00000000
vn 0.17327145 -0.98487411 0.0000000e+0
vn 0.0000000e+0 0.0000000e+0 1.00000000
vn 0.17327145 -0.98487411 0.0000000e+0
vn 0.0000000e+0 0.0000000e+0 1.00000000
vn -0.17327145 -0.98487411 0.0000000e+0
vn -0.17327145 -0.98487411 0.0000000e+0
vn 0.0000000e+0 0.0000000e+0 1.00000000
vn 0.0000000e+0 0.0000000e+0 1.00000000
vn -0.17327145 -0.98487411 0.0000000e+0
vn -0.17327145 -0.98487411 0.0000000e+0
vn 0.0000000e+0 0.0000000e+0 -1.00000000
vn 0.0000000e+0 0.0000000e+0 -1.00000000
vn 0.17327145 -0.98487411 0.0000000e+0
vn 0.0000000e+0 0.0000000e+0 -1.00000000
vn 0.17327145 -0.98487411 0.0000000e+0
vn 0.0000000e+0 0.0000000e+0 -1.00000000
vn -0.17656122 0.98428966 0.0000000e+0
vn 1.1196885e-15 0.0000000e+0 1.00000000
vn -0.17656122 0.98428966 0.0000000e+0
vn 0.0000000e+0 0.0000000e+0 1.00000000
vn 0.0000000e+0 0.0000000e+0 1.00000000
vn 0.17562322 0.98445746 0.0000000e+0
vn 0.0000000e+0 0.0000000e+0 1.00000000
vn -1.1120235e-15 0.0000000e+0 1.00000000
vn 0.17562322 0.98445746 0.0000000e+0
vn 0.0000000e+0 0.0000000e+0 1.00000000
vn 0.17562322 0.98445746 0.0000000e+0
vn 0.0000000e+0 0.0000000e+0 -1.00000000
vn 0.17562322 0.98445746 0.0000000e+0
vn 0.0000000e+0 0.0000000e+0 -1.00000000
vn 2.2240470e-15 0.0000000e+0 -1.00000000
vn -0.17656122 0.98428966 0.0000000e+0
vn -0.17656122 0.98428966 0.0000000e+0
vn 0.0000000e+0 0.0000000e+0 -1.00000000
vn 0.0000000e+0 0.0000000e+0 -1.00000000
vn -1.1196885e-15 0.0000000e+0 -1.00000000
vn -0.69888469 0.71523436 0.0000000e+0
vn 1.1196885e-15 0.0000000e+0 1.00000000
vn -0.69888469 0.71523436 0.0000000e+0
vn -0.69888469 0.71523436 0.0000000e+0
vn -0.69888469 0.71523436 0.0000000e+0
vn -1.1196885e-15 0.0000000e+0 -1.00000000
vn -1.00000000 0.0000000e+0 0.0000000e+0
vn -1.00000000 0.0000000e+0 0.0000000e+0
vn 0.0000000e+0 0.0000000e+0 -1.00000000
vn -1.1196885e-15 0.0000000e+0 -1.00000000
vn -1.00000000 0.0000000e+0 0.0000000e+0
vn 1.1196885e-15 0.0000000e+0 1.00000000
vn -1.00000000 0.0000000e+0 0.0000000e+0
vn 0.0000000e+0 0.0000000e+0 1.00000000
vn -0.69649099 -0.71756554 0.0000000e+0
vn -0.69649099 -0.71756554 0.0000000e+0
vn 0.0000000e+0 0.0000000e+0 1.00000000
vn -0.69649099 -0.71756554 0.0000000e+0
vn -0.69649099 -0.71756554 0.0000000e+0
vn 0.0000000e+0 0.0000000e+0 -1.00000000
vn 0.69820283 0.71589999 0.0000000e+0
vn -1.1120235e-15 0.0000000e+0 1.00000000
vn 0.69820283 0.71589999 0.0000000e+0
vn 1.00000000 0.0000000e+0 0.0000000e+0
vn -1.1120235e-15 0.0000000e+0 1.00000000
vn 1.00000000 0.0000000e+0 0.0000000e+0
vn 0.0000000e+0 0.0000000e+0 1.00000000
vn 1.00000000 0.0000000e+0 0.0000000e+0
vn 1.00000000 0.0000000e+0 0.0000000e+0
vn 0.0000000e+0 0.0000000e+0 -1.00000000
vn 2.2240470e-15 0.0000000e+0 -1.00000000
vn 0.69820283 0.71589999 0.0000000e+0
vn 0.69820283 0.71589999 0.0000000e+0
vn 2.2240470e-15 0.0000000e+0 -1.00000000
vn 0.69649099 -0.71756554 0.0000000e+0
vn 0.69649099 -0.71756554 0.0000000e+0
vn 0.0000000e+0 0.0000000e+0 1.00000000
vn 0.69649099 -0.71756554 0.0000000e+0
vn 0.69649099 -0.71756554 0.0000000e+0
vn 0.0000000e+0 0.0000000e+0 -1.00000000
g Tank_B_default
usemtl default
s 1
f 22/41/66 27/36/81 28/35/84 23/40/69
f 24/50/71 25/68/73 26/69/76 21/51/62
f 30/65/92 48/59/160 45/55/149 35/63/114
f 32/71/99 33/74/104 36/64/117 29/66/86
f 33/74/102 38/82/125 37/77/122
f 34/73/110 40/76/134 39/81/131
f 43/61/142 46/56/152 36/64/118
f 49/66/162 54/64/183 53/74/180 50/71/167
f 51/70/171 56/73/194 55/63/188 52/65/174
f 54/64/184 64/56/221 63/61/218
f 55/63/191 66/60/230 65/55/227
f 56/73/196 59/81/206 58/76/202
f 57/77/198 60/82/208 53/74/178
s 2
f 21/51/63 26/52/77 27/42/79 22/41/65
f 23/40/68 28/39/82 25/49/74 24/50/72
f 30/65/90 35/63/112 34/73/108 31/70/95
f 32/71/100 41/78/137 38/82/127 33/74/105
f 35/63/115 45/55/150 44/60/146
f 36/64/120 46/56/154 47/62/157 29/66/88
f 49/66/164 67/62/233 64/56/223 54/64/186
f 51/70/172 62/75/216 59/81/205 56/73/195
f 53/74/181 60/82/210 61/78/213 50/71/168
f 55/63/190 65/55/226 68/59/236 52/65/176
s 3
f 22/41/64 23/40/67 24/50/70 21/51/61
f 25/37/75 28/43/83 27/44/80 26/38/78
f 29/46/87 47/48/156 48/47/159 30/45/91
f 30/67/89 31/72/93 32/71/97 29/66/85
f 31/87/94 42/85/139 41/86/136 32/88/98
f 33/74/103 37/80/123 40/79/133 34/73/107
f 34/73/106 35/63/111 36/64/116 33/74/101
f 35/63/113 44/57/145 43/58/143 36/64/119
f 38/84/124 39/83/128 40/79/132 37/80/121
f 38/84/126 41/86/135 42/85/138 39/83/129
f 44/57/144 45/53/147 46/54/151 43/58/141
f 45/53/148 48/47/158 47/48/155 46/54/153
f 50/71/165 51/72/169 52/67/173 49/66/161
f 50/88/166 61/86/212 62/85/215 51/87/170
f 52/45/175 68/47/235 67/48/232 49/46/163
f 54/64/182 55/63/187 56/73/192 53/74/177
f 54/64/185 63/58/219 66/57/229 55/63/189
f 56/73/193 58/79/201 57/80/199 53/74/179
f 58/79/200 59/83/203 60/84/207 57/80/197
f 59/83/204 62/85/214 61/86/211 60/84/209
f 64/54/220 65/53/224 66/57/228 63/58/217
f 64/54/222 67/48/231 68/47/234 65/53/225
s 4
f 34/73/109 39/81/130 42/75/140 31/70/96
