# 3ds Max Wavefront OBJ Exporter v0.97b - (c)2007 guruware
# File Created: 27.09.2017 21:16:09

#
# object Truck_B
#

v  -58.6074 9.4542 37.4740
v  -21.4742 25.7492 37.4740
v  -43.7908 25.7492 37.4740
v  -58.6074 9.4542 -37.4740
v  -21.4742 25.7492 -37.4740
v  62.6295 25.7492 -37.4740
v  65.8527 9.4542 -37.4740
v  62.6295 25.7492 37.4740
v  65.8527 9.4542 37.4740
v  -43.7908 25.7492 -29.2187
v  -43.7908 25.7492 -37.4740
v  13.1798 42.1539 34.7693
v  -6.7053 42.1539 34.7693
v  -6.7053 42.1539 -34.7693
v  -29.0219 42.1539 -25.3156
v  -29.0219 42.1539 25.3156
v  -43.7908 25.7492 29.2187
v  13.1798 42.1539 -34.7693
v  -50.3756 16.3515 19.2686
v  -50.3756 16.3515 35.3666
v  63.3580 16.3515 35.3666
v  63.3580 16.3515 19.2686
v  63.3121 0.0015 35.3666
v  -64.8983 0.0015 35.3666
v  -64.8983 0.0015 19.2686
v  63.3121 0.0015 19.2686
v  65.4510 14.4911 35.3666
v  66.6667 8.1765 35.3666
v  66.6667 8.1765 19.2686
v  65.4510 14.4911 19.2686
v  -53.7956 15.6892 19.2686
v  -66.1507 2.0505 19.2686
v  -53.7956 15.6892 35.3666
v  -66.1507 2.0505 35.3666
v  65.4376 1.8619 35.3666
v  65.4376 1.8619 19.2686
v  -50.3756 16.3515 -19.2686
v  63.3580 16.3515 -19.2686
v  63.3580 16.3515 -35.3666
v  -50.3756 16.3515 -35.3666
v  63.3121 0.0015 -35.3666
v  63.3121 0.0015 -19.2686
v  -64.8983 0.0015 -19.2686
v  -64.8983 0.0015 -35.3666
v  65.4510 14.4911 -35.3666
v  65.4510 14.4911 -19.2686
v  66.6667 8.1765 -19.2686
v  66.6667 8.1765 -35.3666
v  -53.7956 15.6892 -19.2686
v  -66.1507 2.0505 -19.2686
v  -53.7956 15.6892 -35.3666
v  -66.1507 2.0505 -35.3666
v  65.4376 1.8619 -35.3666
v  65.4376 1.8619 -19.2686
# 54 vertices

vn 0.0000 0.0000 1.0000
vn 0.0000 0.0000 -1.0000
vn 0.9810 0.1940 -0.0000
vn -0.7399 0.6727 -0.0000
vn 0.0000 -1.0000 -0.0000
vn 0.0000 0.1627 0.9867
vn 0.0000 1.0000 -0.0000
vn -0.3273 0.4608 0.8249
vn 0.0000 0.1627 -0.9867
vn 0.3149 0.9491 -0.0000
vn -0.7432 0.6691 -0.0000
vn -0.3273 0.4608 -0.8249
vn -0.0955 0.9954 0.0000
vn 0.3554 0.9347 0.0000
vn 0.3554 0.9347 -0.0000
vn 0.3518 -0.9361 -0.0000
vn -0.4891 -0.8722 -0.0000
vn 0.8692 0.4944 -0.0000
vn 1.0000 -0.0010 -0.0000
vn -0.0000 -0.0000 -1.0000
vn -0.4908 0.8713 0.0000
vn -0.4908 0.8713 -0.0000
vn -0.9956 0.0936 -0.0000
vn 0.8668 -0.4986 -0.0000
vn 0.0000 -0.0000 -1.0000
vn -0.0955 0.9954 -0.0000
vn 0.3518 -0.9361 0.0000
vn 1.0000 -0.0010 0.0000
vn -0.0000 -0.0000 1.0000
vn -0.9956 0.0936 0.0000
vn 0.8668 -0.4986 0.0000
vn 0.0000 -0.0000 1.0000
# 32 vertex normals

vt 0.7137 0.9860 0.0000
vt 0.5283 0.9046 0.0000
vt 0.6397 0.9046 0.0000
vt 0.7137 0.3100 0.0000
vt 0.5283 0.3914 0.0000
vt 0.1083 0.3914 0.0000
vt 0.0922 0.3100 0.0000
vt 0.0951 0.4611 0.0000
vt 0.0951 0.8350 0.0000
vt 0.0123 0.8348 0.0000
vt 0.0123 0.4612 0.0000
vt 0.7871 0.4592 0.0000
vt 0.6762 0.5015 0.0000
vt 0.6762 0.4592 0.0000
vt 0.7369 0.4228 0.0000
vt 0.7369 0.0175 0.0000
vt 0.9810 0.0175 0.0000
vt 0.9810 0.4228 0.0000
vt 0.1084 0.9046 0.0000
vt 0.3553 0.8216 0.0000
vt 0.4545 0.8216 0.0000
vt 0.4545 0.4744 0.0000
vt 0.5660 0.5216 0.0000
vt 0.5660 0.7744 0.0000
vt 0.6464 0.8920 0.0000
vt 0.5745 0.8063 0.0000
vt 0.3552 0.4744 0.0000
vt 0.6762 0.7945 0.0000
vt 0.6464 0.4040 0.0000
vt 0.5745 0.4898 0.0000
vt 0.7871 0.8368 0.0000
vt 0.6762 0.8368 0.0000
vt 0.0923 0.9860 0.0000
vt 0.6397 0.3914 0.0000
vt 0.5925 0.1545 0.0000
vt 0.5925 0.2252 0.0000
vt 0.0926 0.2252 0.0000
vt 0.0926 0.1545 0.0000
vt 0.0928 0.0119 0.0000
vt 0.6563 0.0119 0.0000
vt 0.6563 0.0826 0.0000
vt 0.0928 0.0826 0.0000
vt 0.0803 0.2252 0.0000
vt 0.0520 0.2252 0.0000
vt 0.0520 0.1545 0.0000
vt 0.0803 0.1545 0.0000
vt 0.6075 0.1516 0.0000
vt 0.6618 0.0916 0.0000
vt 0.6078 0.2252 0.0000
vt 0.6078 0.1545 0.0000
vt 0.6886 0.1545 0.0000
vt 0.6886 0.2252 0.0000
vt 0.0834 0.2334 0.0000
vt 0.0781 0.2612 0.0000
vt 0.0238 0.2252 0.0000
vt 0.0237 0.1545 0.0000
vt 0.0113 0.1545 0.0000
vt 0.0113 0.2252 0.0000
vt 0.6992 0.2252 0.0000
vt 0.6992 0.1545 0.0000
vt 0.6075 0.2281 0.0000
vt 0.6618 0.2881 0.0000
vt 0.6563 0.2971 0.0000
vt 0.0928 0.2971 0.0000
vt 0.0781 0.1186 0.0000
vt 0.0835 0.0908 0.0000
vt 0.0835 0.2889 0.0000
vt 0.0834 0.1463 0.0000
# 68 texture coords

g Truck_B
s off
f 1/1/1 2/2/1 3/3/1 
f 4/4/2 5/5/2 6/6/2 7/7/2 
f 6/8/3 8/9/3 9/10/3 7/11/3 
f 4/12/4 10/13/4 11/14/4 
f 9/15/5 1/16/5 4/17/5 7/18/5 
f 2/2/6 8/19/6 12/20/6 13/21/6 
f 13/21/7 14/22/7 15/23/7 16/24/7 
f 17/25/8 2/2/8 13/21/8 16/26/8 
f 5/5/9 14/22/9 18/27/9 6/6/9 
f 6/8/10 18/27/10 12/20/10 8/9/10 
f 16/24/11 15/23/11 10/13/11 17/28/11 
f 10/29/12 15/30/12 14/22/12 5/5/12 
f 1/31/4 3/32/4 17/28/4 
f 4/12/4 1/31/4 17/28/4 10/13/4 
f 1/1/1 9/33/1 8/19/1 2/2/1 
f 4/4/2 11/34/2 5/5/2 
f 3/3/7 2/2/7 17/25/7 
f 11/34/7 10/29/7 5/5/7 
f 12/20/7 18/27/7 14/22/7 13/21/7 
s 2048
f 19/35/13 20/36/13 21/37/14 22/38/15 
f 23/39/16 24/40/17 25/41/17 26/42/16 
f 27/43/18 28/44/19 29/45/19 30/46/18 
s off
f 31/47/20 19/35/20 25/41/20 32/48/20 
s 2048
f 33/49/21 31/50/22 32/51/23 34/52/23 
s off
f 27/53/1 21/37/1 28/54/1 
s 2048
f 35/55/24 36/56/24 29/45/19 28/44/19 
f 21/37/14 27/43/18 30/46/18 22/38/15 
f 19/35/13 31/50/22 33/49/21 20/36/13 
f 26/57/16 36/56/24 35/55/24 23/58/16 
f 24/59/17 34/52/23 32/51/23 25/60/17 
s off
f 22/38/20 26/42/20 25/41/20 19/35/20 
f 33/61/1 34/62/1 24/63/1 20/36/1 
f 20/36/1 24/63/1 23/64/1 21/37/1 
f 29/65/25 36/66/25 26/42/25 22/38/25 
f 23/64/1 35/67/1 28/54/1 21/37/1 
f 22/38/20 30/68/20 29/65/20 
s 2048
f 37/35/26 38/38/15 39/37/15 40/36/26 
f 41/39/16 42/42/27 43/41/17 44/40/17 
f 45/43/18 46/46/18 47/45/28 48/44/19 
s off
f 49/47/29 50/48/29 43/41/29 37/35/29 
s 2048
f 51/49/22 52/52/23 50/51/30 49/50/21 
s off
f 45/53/2 48/54/2 39/37/2 
s 2048
f 53/55/31 48/44/19 47/45/28 54/56/31 
f 39/37/15 38/38/15 46/46/18 45/43/18 
f 37/35/26 40/36/26 51/49/22 49/50/21 
f 42/57/27 41/58/16 53/55/31 54/56/31 
f 44/59/17 43/60/17 50/51/30 52/52/23 
s off
f 38/38/29 37/35/29 43/41/29 42/42/29 
f 51/61/2 40/36/2 44/63/2 52/62/2 
f 40/36/2 39/37/2 41/64/2 44/63/2 
f 47/65/32 38/38/32 42/42/32 54/66/32 
f 41/64/2 39/37/2 48/54/2 53/67/2 
f 38/38/29 47/65/29 46/68/29 
# 43 polygons - 10 triangles

