# Exported from Wings 3D 2.0.5
mtllib untitled.mtl
o HelicopterScrew_Untitled.003
#4 vertices, 2 faces
v -2.50000000 1.70000000 -0.30000000
v 2.50000000 1.70000000 -0.30000000
v 2.50000000 1.70000000 0.30000000
v -2.50000000 1.70000000 0.30000000
vt 0.48213582 0.99036392
vt 0.52448222 1.01121349
vt 0.95164016 0.82944289
vt 0.98501147 0.86203107
vn 0.0000000e+0 -1.00000000 0.0000000e+0
vn 0.0000000e+0 -1.00000000 0.0000000e+0
vn 0.0000000e+0 -1.00000000 0.0000000e+0
vn 0.0000000e+0 -1.00000000 0.0000000e+0
g HelicopterScrew_Untitled.003_default4_Helicopter.png
usemtl default4_Helicopter.png
s 1
f 2/1/2 3/2/3 1/3/1
f 3/2/3 4/4/4 1/3/1
o Helicopter_Untitled.002
#10 vertices, 16 faces
v 0.52787677 -0.49448513 0.97800186
v 0.52787677 0.52954342 0.97800186
v 0.52787677 -0.49448513 -0.97800186
v 2.00405937 -0.49448513 0.0000000e+0
v 0.52787677 0.52954342 -0.97800186
v 2.00405937 0.52954342 0.0000000e+0
v -1.93241946 -0.49448513 0.23207464
v -1.93241946 -0.49448513 -0.23207464
v -1.93595473 0.28124046 0.23100279
v -1.93595473 0.28124046 -0.23100279
vt 0.0000000e+0 0.0000000e+0
vt 0.53491749 0.77290182
vt 0.65706282 0.78884414
vt 0.65719847 0.76182653
vt 0.66175971 0.86178411
vt 0.66653247 0.69105029
vt 0.69669788 0.78624877
vt 0.69673331 0.75867252
vt 0.70301164 0.79240211
vt 0.70302401 0.76644561
vt 0.71164526 0.75714386
vt 0.71169067 0.77854613
vt 0.72433770 0.75731544
vt 0.72434310 0.77868474
vt 0.73363040 0.76349517
vt 0.73367098 0.79018726
vt 0.76186323 0.76140109
vt 0.76205523 0.78191526
vt 0.87588927 0.80154175
vt 0.87748390 0.76195337
vn -6.8783421e-3 -0.73742950 0.67538909
vn 0.15251512 0.74277594 0.65193791
vn 9.7196432e-2 -0.74150060 -0.66387477
vn 0.91101646 -0.41237000 0.0000000e+0
vn 0.10289291 0.48406197 -0.86896321
vn 0.74133858 0.67113122 0.0000000e+0
vn -0.68096364 -0.53022966 0.50511882
vn -0.68096364 -0.53022967 -0.50511882
vn -0.77965977 0.28674245 0.55669508
vn -0.56024627 0.74616630 -0.35966648
g Helicopter_Untitled.002_default3
usemtl default3
s 1
f 5/5/5 12/5/12 7/5/7
f 7/5/7 8/5/8 5/5/5
f 11/5/11 12/5/12 5/5/5
g Helicopter_Untitled.002_default3_Helicopter.png
usemtl default3_Helicopter.png
s 1
f 5/19/5 8/14/8 6/20/6
f 5/19/5 13/18/13 11/17/11
f 6/9/6 10/6/10 9/10/9
f 6/20/6 13/18/13 5/19/5
f 6/9/6 14/24/14 13/23/13
f 7/12/7 9/11/9 8/8/8
f 7/12/7 12/21/12 9/11/9
f 8/14/8 10/13/10 6/20/6
f 9/11/9 10/7/10 8/8/8
f 9/10/9 14/24/14 6/9/6
f 11/17/11 13/18/13 12/15/12
f 12/21/12 14/22/14 9/11/9
f 13/18/13 14/16/14 12/15/12
