# Exported from Wings 3D 2.0.5
mtllib untitled.mtl
o Cube1
#16 vertices, 14 faces
v -2.00000000 0.0000000e+0 -1.50000000
v -2.00000000 0.0000000e+0 1.50000000
v -2.00000000 1.50000000 -1.50000000
v -2.00000000 1.50000000 1.50000000
v 2.00000000 0.0000000e+0 -1.50000000
v 2.00000000 0.0000000e+0 1.50000000
v 2.00000000 1.50000000 -1.50000000
v 2.00000000 1.50000000 1.50000000
v 0.70000000 1.70000000 0.70000000
v -0.70000000 1.70000000 0.70000000
v -0.70000000 1.70000000 -0.70000000
v 0.70000000 1.70000000 -0.70000000
v -0.70000000 1.70000000 0.30000000
v -2.50000000 1.70000000 0.30000000
v -2.50000000 1.70000000 -0.30000000
v -0.70000000 1.70000000 -0.30000000
vt 0.20201292 0.84125900
vt 0.20249094 0.71474155
vt 0.20926876 0.84375545
vt 0.20950014 0.71611373
vt 0.34129927 0.74743253
vt 0.34375458 0.79689061
vt 0.35854171 0.73340342
vt 0.35857762 0.71455748
vt 0.35871972 0.67779132
vt 0.35874505 0.73035364
vt 0.35880951 0.71185181
vt 0.36115033 0.74717651
vt 0.39003075 0.67736687
vt 0.39094093 0.74679231
vt 0.39646635 0.71472793
vt 0.39650568 0.73355369
vt 0.39666974 0.71223841
vt 0.39674198 0.73071689
vt 0.41073625 0.79605821
vt 0.41081070 0.74653605
vt 0.47201699 0.51958402
vt 0.47242662 0.47796699
vt 0.52761962 0.52006908
vt 0.52793724 0.47845045
vt 0.54089414 0.71427122
vt 0.54135108 0.84250708
vt 0.54830762 0.71622069
vt 0.54854379 0.84308218
vn -0.70710678 0.0000000e+0 -0.70710678
vn -0.70710678 0.0000000e+0 0.70710678
vn -0.57735027 0.57735027 -0.57735027
vn -0.57735027 0.57735027 0.57735027
vn 0.70710678 0.0000000e+0 -0.70710678
vn 0.70710678 0.0000000e+0 0.70710678
vn 0.57735027 0.57735027 -0.57735027
vn 0.57735027 0.57735027 0.57735027
vn 0.0000000e+0 -1.00000000 0.0000000e+0
vn 0.0000000e+0 -1.00000000 0.0000000e+0
vn 0.0000000e+0 -1.00000000 0.0000000e+0
vn 0.0000000e+0 -1.00000000 0.0000000e+0
vn 0.0000000e+0 -1.00000000 0.0000000e+0
vn 0.0000000e+0 -1.00000000 0.0000000e+0
vn 0.0000000e+0 -1.00000000 0.0000000e+0
vn 0.0000000e+0 -1.00000000 0.0000000e+0
g Cube1_default5_Tank.png
usemtl default5_Tank.png
s 1
f 2/15/2 3/7/3 1/8/1
f 2/15/2 4/16/4 3/7/3
f 2/4/2 8/28/8 4/3/4
f 3/26/3 5/2/5 1/25/1
f 3/26/3 7/1/7 5/2/5
f 3/21/3 8/24/8 7/23/7
f 4/22/4 8/24/8 3/21/3
f 5/17/5 8/10/8 6/11/6
f 6/27/6 8/28/8 2/4/2
f 7/18/7 8/10/8 5/17/5
f 10/20/10 11/5/11 9/19/9
f 11/5/11 12/6/12 9/19/9
f 14/13/14 15/9/15 13/14/13
f 15/9/15 16/12/16 13/14/13
