# Exported from Wings 3D 2.0.5
mtllib BTR.mtl
o Cube1
#8 vertices, 10 faces
v -2.00000000 0.0000000e+0 -1.50000000
v -2.00000000 0.0000000e+0 1.50000000
v -1.50000000 1.70000000 -1.50000000
v -1.50000000 1.70000000 1.50000000
v 2.00000000 0.0000000e+0 -1.50000000
v 2.00000000 0.0000000e+0 1.50000000
v 2.00000000 1.70000000 -1.50000000
v 2.00000000 1.70000000 1.50000000
vn -0.70710678 0.0000000e+0 -0.70710678
vn -0.70710678 0.0000000e+0 0.70710678
vn -0.57735027 0.57735027 -0.57735027
vn -0.57735027 0.57735027 0.57735027
vn 0.70710678 0.0000000e+0 -0.70710678
vn 0.70710678 0.0000000e+0 0.70710678
vn 0.57735027 0.57735027 -0.57735027
vn 0.57735027 0.57735027 0.57735027
vt 0 0
g Cube1_default
usemtl default
s 1
f 2/1/2 3/1/3 1/1/1
f 2/1/2 8/1/8 4/1/4
f 3/1/3 5/1/5 1/1/1
f 3/1/3 8/1/8 7/1/7
f 4/1/4 3/1/3 2/1/2
f 4/1/4 8/1/8 3/1/3
f 5/1/5 8/1/8 6/1/6
f 6/1/6 8/1/8 2/1/2
f 7/1/7 5/1/5 3/1/3
f 7/1/7 8/1/8 5/1/5
