# Blender v2.79 (sub 0) OBJ File: ''
# www.blender.org
mtllib Truck.mtl
o Truck_Untitled.006
v -1.358668 0.173903 0.901006
v 1.482123 0.173903 0.901006
v 1.443141 0.801999 0.901006
v 1.563244 0.622073 0.901006
v -1.446034 0.622073 0.901006
v -0.402718 0.801999 0.901006
v -0.152683 0.801999 0.344972
v -1.360003 0.891346 0.901006
v -0.402718 0.891346 0.901006
v -0.152683 0.891346 0.344972
v -1.358668 0.173903 -0.901006
v 1.482123 0.173903 -0.901006
v 1.443141 0.801999 -0.901006
v 1.563244 0.622073 -0.901006
v -1.446034 0.622073 -0.901006
v -0.402718 0.801999 -0.901006
v -0.152683 0.801999 -0.344973
v -1.360003 0.891346 -0.901006
v -0.402718 0.891346 -0.901006
v -0.152683 0.891346 -0.344973
v -1.131567 0.461370 0.991662
v 1.242041 0.461370 0.991662
v 1.394058 0.392317 0.521509
v 1.238848 0.000038 0.991662
v 1.238848 0.000038 0.521509
v 1.452039 0.230704 0.991662
v 1.452039 0.230704 0.521509
v 1.394058 0.392317 0.991662
v 1.242041 0.461370 0.521509
v 1.393126 0.069090 0.991662
v 1.393126 0.069090 0.521509
v -1.128374 0.000038 0.521509
v -1.282300 0.392317 0.521509
v -1.128374 0.000038 0.991662
v -1.334812 0.230704 0.991662
v -1.334812 0.230704 0.521509
v -1.282300 0.392317 0.991662
v -1.131567 0.461370 0.521509
v -1.281368 0.069090 0.991662
v -1.281368 0.069090 0.521509
v -1.131567 0.461370 -0.991662
v 1.242041 0.461370 -0.991662
v 1.394058 0.392317 -0.521509
v 1.238848 0.000038 -0.991662
v 1.238848 0.000038 -0.521509
v 1.452039 0.230704 -0.991662
v 1.452039 0.230704 -0.521509
v 1.394058 0.392317 -0.991662
v 1.242041 0.461370 -0.521509
v 1.393126 0.069090 -0.991662
v 1.393126 0.069090 -0.521509
v -1.128374 0.000038 -0.521509
v -1.282300 0.392317 -0.521509
v -1.128374 0.000038 -0.991662
v -1.334812 0.230704 -0.991662
v -1.334812 0.230704 -0.521509
v -1.282300 0.392317 -0.991662
v -1.131567 0.461370 -0.521509
v -1.281368 0.069090 -0.991662
v -1.281368 0.069090 -0.521509
vt 0.525508 0.982610
vt 0.110095 0.982613
vt 0.098232 0.917077
vt 0.538283 0.917074
vt 0.115793 0.890767
vt 0.385716 0.890765
vt 0.385716 0.877700
vt 0.525701 0.877698
vt 0.019040 0.016690
vt 0.228630 0.016696
vt 0.228628 0.047411
vt 0.019039 0.047406
vt 0.983106 0.535895
vt 0.983106 0.580464
vt 0.698976 0.580464
vt 0.698975 0.535895
vt 0.983106 0.731402
vt 0.698976 0.731402
vt 0.525508 0.535410
vt 0.538283 0.600946
vt 0.098232 0.600945
vt 0.110094 0.535409
vt 0.084158 0.627256
vt 0.084158 0.890767
vt 0.017555 0.890768
vt 0.017556 0.627256
vt 0.698976 0.463901
vt 0.983106 0.463901
vt 0.115793 0.627256
vt 0.983106 0.015981
vt 0.698976 0.015981
vt 0.385716 0.627256
vt 0.349153 0.708566
vt 0.525701 0.640322
vt 0.385716 0.640322
vt 0.675408 0.016715
vt 0.675407 0.047433
vt 0.465817 0.047423
vt 0.465819 0.016708
vt 0.895434 0.770825
vt 0.786648 0.770825
vt 0.349153 0.809457
vt 0.065805 0.411059
vt 0.065614 0.298999
vt 0.631379 0.298034
vt 0.631571 0.410094
vt 0.630432 0.188075
vt 0.066187 0.189036
vt 0.065996 0.076972
vt 0.630240 0.076011
vt 0.849772 0.931674
vt 0.849772 0.883129
vt 0.982700 0.883128
vt 0.982700 0.931674
vt 0.667586 0.281515
vt 0.681342 0.242971
vt 0.849927 0.834494
vt 0.982544 0.834494
vt 0.849772 0.978881
vt 0.982700 0.978881
vt 0.982389 0.786928
vt 0.850082 0.786928
vt 0.630999 0.520057
vt 0.066753 0.521019
vt 0.681721 0.464988
vt 0.667745 0.503534
vt 0.667234 0.204472
vt 0.667835 0.426490
vt 0.529308 0.808031
vt 0.395950 0.808031
vt 0.395950 0.759831
vt 0.529308 0.759831
vt 0.029658 0.282603
vt 0.017074 0.244103
vt 0.529358 0.711548
vt 0.395900 0.711548
vt 0.529308 0.855059
vt 0.395950 0.855059
vt 0.395850 0.663865
vt 0.529409 0.663865
vt 0.017453 0.466121
vt 0.030258 0.504621
vt 0.029747 0.205559
vt 0.029905 0.427578
vt 0.065805 0.411059
vt 0.631571 0.410094
vt 0.631379 0.298034
vt 0.065614 0.298999
vt 0.630432 0.188075
vt 0.630240 0.076011
vt 0.065996 0.076972
vt 0.066187 0.189036
vt 0.849772 0.931674
vt 0.982700 0.931674
vt 0.982700 0.883128
vt 0.849772 0.883129
vt 0.667586 0.281515
vt 0.681342 0.242971
vt 0.849927 0.834494
vt 0.982544 0.834494
vt 0.849772 0.978881
vt 0.982700 0.978881
vt 0.982389 0.786928
vt 0.850082 0.786928
vt 0.066753 0.521019
vt 0.630999 0.520057
vt 0.681721 0.464988
vt 0.667745 0.503534
vt 0.667234 0.204472
vt 0.667835 0.426490
vt 0.529308 0.808031
vt 0.529308 0.759831
vt 0.395950 0.759831
vt 0.395950 0.808031
vt 0.029658 0.282603
vt 0.017074 0.244103
vt 0.529358 0.711548
vt 0.395900 0.711548
vt 0.529308 0.855059
vt 0.395950 0.855059
vt 0.395850 0.663865
vt 0.529409 0.663865
vt 0.017453 0.466121
vt 0.030258 0.504621
vt 0.029747 0.205559
vt 0.029905 0.427578
vn 0.0000 0.0000 1.0000
vn 0.9120 0.0000 0.4101
vn -0.9526 0.3043 -0.0000
vn 0.0000 1.0000 -0.0000
vn 0.0000 0.0000 -1.0000
vn 0.9840 -0.1781 0.0000
vn -0.9815 -0.1913 0.0000
vn 0.8317 0.5552 -0.0000
vn 0.0000 -1.0000 0.0000
vn 0.9120 0.0000 -0.4101
vn 1.0000 0.0000 0.0000
vn -0.2131 0.9770 0.0000
vn 0.2116 0.9774 0.0000
vn 0.2089 -0.9779 0.0000
vn -0.2104 -0.9776 0.0000
vn 0.7355 0.6776 0.0000
vn 1.0000 -0.0025 0.0000
vn 0.7319 -0.6815 0.0000
vn -0.7467 0.6651 0.0000
vn -1.0000 -0.0026 0.0000
vn -0.7431 -0.6692 0.0000
usemtl Truck
s 1
f 1/1/1 2/2/1 4/3/1
f 4/3/1 5/4/1 1/1/1
f 4/3/1 3/5/1 6/6/1
f 6/6/1 5/4/1 4/3/1
f 6/6/1 9/7/1 8/8/1
f 8/8/1 5/4/1 6/6/1
f 6/9/2 7/10/2 10/11/2
f 10/11/2 9/12/2 6/9/2
f 5/13/3 8/14/3 18/15/3
f 18/15/3 15/16/3 5/13/3
f 8/14/4 9/17/4 19/18/4
f 19/18/4 18/15/4 8/14/4
f 11/19/5 15/20/5 14/21/5
f 14/21/5 12/22/5 11/19/5
f 14/23/6 4/24/6 2/25/6
f 2/25/6 12/26/6 14/23/6
f 11/27/7 1/28/7 5/13/7
f 5/13/7 15/16/7 11/27/7
f 4/24/8 14/23/8 13/29/8
f 13/29/8 3/5/8 4/24/8
f 2/30/9 1/28/9 11/27/9
f 11/27/9 12/31/9 2/30/9
f 16/32/4 17/33/4 13/29/4
f 14/21/5 15/20/5 16/32/5
f 16/32/5 13/29/5 14/21/5
f 16/32/5 15/20/5 18/34/5
f 18/34/5 19/35/5 16/32/5
f 16/36/10 19/37/10 20/38/10
f 20/38/10 17/39/10 16/36/10
f 17/39/11 20/38/11 10/11/11
f 10/11/11 7/10/11 17/39/11
f 10/40/4 20/41/4 19/18/4
f 19/18/4 9/17/4 10/40/4
f 7/42/4 6/6/4 3/5/4
f 17/33/4 7/42/4 3/5/4
f 3/5/4 13/29/4 17/33/4
f 38/43/12 21/44/12 22/45/13
f 22/45/13 29/46/13 38/43/12
f 24/47/14 34/48/15 32/49/15
f 32/49/15 25/50/14 24/47/14
f 28/51/16 26/52/17 27/53/17
f 27/53/17 23/54/16 28/51/16
f 28/55/1 22/45/1 26/56/1
f 30/57/18 31/58/18 27/53/17
f 27/53/17 26/52/17 30/57/18
f 22/59/13 28/51/16 23/54/16
f 23/54/16 29/60/13 22/59/13
f 25/61/14 31/58/18 30/57/18
f 30/57/18 24/62/14 25/61/14
f 29/46/5 25/63/5 32/64/5
f 32/64/5 38/43/5 29/46/5
f 21/44/1 34/48/1 24/47/1
f 24/47/1 22/45/1 21/44/1
f 27/65/5 31/66/5 25/63/5
f 25/63/5 29/46/5 27/65/5
f 24/47/1 30/67/1 26/56/1
f 26/56/1 22/45/1 24/47/1
f 29/46/5 23/68/5 27/65/5
f 37/69/19 33/70/19 36/71/20
f 36/71/20 35/72/20 37/69/19
f 37/73/1 35/74/1 21/44/1
f 39/75/21 35/72/20 36/71/20
f 36/71/20 40/76/21 39/75/21
f 21/77/12 38/78/12 33/70/19
f 33/70/19 37/69/19 21/77/12
f 32/79/15 34/80/15 39/75/21
f 39/75/21 40/76/21 32/79/15
f 36/81/5 38/43/5 32/64/5
f 32/64/5 40/82/5 36/81/5
f 34/48/1 21/44/1 35/74/1
f 35/74/1 39/83/1 34/48/1
f 38/43/5 36/81/5 33/84/5
f 58/85/12 49/86/13 42/87/13
f 42/87/13 41/88/12 58/85/12
f 44/89/14 45/90/14 52/91/15
f 52/91/15 54/92/15 44/89/14
f 48/93/16 43/94/16 47/95/17
f 47/95/17 46/96/17 48/93/16
f 48/97/5 46/98/5 42/87/5
f 50/99/18 46/96/17 47/95/17
f 47/95/17 51/100/18 50/99/18
f 42/101/13 49/102/13 43/94/16
f 43/94/16 48/93/16 42/101/13
f 45/103/14 44/104/14 50/99/18
f 50/99/18 51/100/18 45/103/14
f 49/86/1 58/85/1 52/105/1
f 52/105/1 45/106/1 49/86/1
f 41/88/5 42/87/5 44/89/5
f 44/89/5 54/92/5 41/88/5
f 47/107/1 49/86/1 45/106/1
f 45/106/1 51/108/1 47/107/1
f 44/89/5 42/87/5 46/98/5
f 46/98/5 50/109/5 44/89/5
f 49/86/1 47/107/1 43/110/1
f 57/111/19 55/112/20 56/113/20
f 56/113/20 53/114/19 57/111/19
f 57/115/5 41/88/5 55/116/5
f 59/117/21 60/118/21 56/113/20
f 56/113/20 55/112/20 59/117/21
f 41/119/12 57/111/19 53/114/19
f 53/114/19 58/120/12 41/119/12
f 52/121/15 60/118/21 59/117/21
f 59/117/21 54/122/15 52/121/15
f 56/123/1 60/124/1 52/105/1
f 52/105/1 58/85/1 56/123/1
f 54/92/5 59/125/5 55/116/5
f 55/116/5 41/88/5 54/92/5
f 58/85/1 53/126/1 56/123/1
